<svg width="52" height="60" viewBox="0 0 52 60" fill="none" xmlns="http://www.w3.org/2000/svg">
<path d="M4.32884 19.4355C3.29504 19.4355 2.4179 19.7961 1.69688 20.5171C0.975854 21.2381 0.615234 22.1033 0.615234 23.1131V38.6178C0.615234 39.6529 0.975746 40.5293 1.69688 41.2504C2.4179 41.9715 3.29504 42.3321 4.32884 42.3321C5.36188 42.3321 6.2337 41.9716 6.94355 41.2504C7.65198 40.5294 8.00718 39.6529 8.00718 38.6178V23.1131C8.00718 22.1032 7.64667 21.2381 6.92554 20.5171C6.20441 19.7961 5.33866 19.4355 4.32884 19.4355Z" fill="white"/>
<path d="M34.1846 5.51635L36.7448 0.793578C36.9128 0.480911 36.853 0.241148 36.5649 0.0725555C36.2521 -0.0728207 36.0118 0.000843825 35.8439 0.288341L33.2479 5.04887C30.9637 4.03894 28.5477 3.53305 26.0001 3.53305C23.4519 3.53305 21.0357 4.03905 18.7523 5.04887L16.1562 0.288341C15.9875 0.000843825 15.7472 -0.0721697 15.4352 0.0725555C15.1464 0.241908 15.0866 0.480911 15.2553 0.793578L17.8156 5.51635C15.2195 6.84025 13.1519 8.68403 11.6136 11.0517C10.0752 13.4207 9.30566 16.0095 9.30566 18.8226H42.6582C42.6582 16.0101 41.8886 13.4212 40.3503 11.0517C38.8118 8.68403 36.7562 6.84025 34.1846 5.51635ZM19.3831 12.3857C19.1062 12.6632 18.7755 12.8013 18.3911 12.8013C18.006 12.8013 17.682 12.6632 17.4178 12.3857C17.1535 12.1095 17.0213 11.7801 17.0213 11.3944C17.0213 11.0101 17.1535 10.68 17.4178 10.4032C17.682 10.1269 18.0068 9.98884 18.3911 9.98884C18.7755 9.98884 19.1062 10.1269 19.3831 10.4032C19.6593 10.6807 19.798 11.0101 19.798 11.3944C19.7973 11.7795 19.6586 12.1095 19.3831 12.3857ZM34.5809 12.3857C34.3161 12.6632 33.9914 12.8013 33.6077 12.8013C33.2224 12.8013 32.8919 12.6632 32.6155 12.3857C32.3388 12.1095 32.2007 11.7801 32.2007 11.3944C32.2007 11.0101 32.3388 10.68 32.6155 10.4032C32.8919 10.1269 33.2224 9.98884 33.6077 9.98884C33.9921 9.98884 34.316 10.1269 34.5809 10.4032C34.8454 10.6807 34.9774 11.0101 34.9774 11.3944C34.9774 11.7795 34.8453 12.1095 34.5809 12.3857Z" fill="white"/>
<path d="M9.44922 44.1336C9.44922 45.2404 9.8336 46.1773 10.6025 46.9462C11.372 47.7151 12.3089 48.0995 13.4149 48.0995H16.0834L16.1199 56.2854C16.1199 57.3191 16.4804 58.1969 17.2015 58.918C17.9225 59.6392 18.7883 59.9997 19.7975 59.9997C20.8307 59.9997 21.7083 59.6392 22.4295 58.918C23.1506 58.1969 23.5111 57.3192 23.5111 56.2854V48.1002H28.4869V56.2854C28.4869 57.3191 28.8473 58.1969 29.5684 58.918C30.2895 59.6392 31.1665 59.9997 32.2004 59.9997C33.2335 59.9997 34.1112 59.6392 34.8323 58.918C35.5535 58.1969 35.9139 57.3192 35.9139 56.2854V48.1002H38.6183C39.6998 48.1002 40.6247 47.7157 41.395 46.9469C42.1637 46.178 42.5483 45.2411 42.5483 44.1344V20.119H9.44922V44.1336Z" fill="white"/>
<path d="M47.6709 19.4355C46.6609 19.4355 45.7958 19.7907 45.0747 20.4992C44.3537 21.2089 43.9932 22.0807 43.9932 23.1131V38.6178C43.9932 39.6529 44.3536 40.5293 45.0747 41.2504C45.7958 41.9716 46.6616 42.3321 47.6709 42.3321C48.704 42.3321 49.5817 41.9716 50.3028 41.2504C51.0239 40.5293 51.3843 39.6529 51.3843 38.6178V23.1131C51.3843 22.0806 51.0239 21.2089 50.3028 20.4992C49.5817 19.7907 48.704 19.4355 47.6709 19.4355Z" fill="white"/>
</svg>
