<svg width="50" height="60" viewBox="0 0 50 60" fill="none" xmlns="http://www.w3.org/2000/svg">
<path d="M41.4409 33.6321C39.7904 25.3258 47.6745 20.4542 47.6745 20.4542C47.6745 20.4542 44.6028 16.0101 39.4403 14.8668C34.2804 13.7211 31.6979 15.1526 29.1204 16.2263C26.5405 17.3026 25.2531 17.3026 25.2531 17.3026C21.53 17.3026 18.8083 13.3606 11.7148 15.1552C6.82782 16.3885 1.68328 22.03 0.753775 28.7632C-0.175725 35.4988 1.8301 44.0935 5.69742 50.7546C9.56475 57.4208 13.5043 59.9261 16.3004 59.9982C19.0967 60.0676 21.8878 57.995 25.2531 57.4903C28.621 56.9908 30.6937 58.7108 33.9971 59.6403C37.2877 60.5673 38.4412 59.7073 42.2313 56.4836C46.0317 53.2599 49.4717 44.0138 49.4717 44.0138C49.4717 44.0138 43.0914 41.9435 41.4409 33.6321Z" fill="white"/>
<path d="M34.1337 9.49327C37.7899 5.76763 36.5514 0 36.5514 0C36.5514 0 31.4173 0.901211 27.9773 4.48015C24.5399 8.06172 25.1089 13.7186 25.1089 13.7186C25.1089 13.7186 30.4774 13.2165 34.1337 9.49327Z" fill="white"/>
</svg>
