<svg width="320" height="31" viewBox="0 0 320 31" fill="none" xmlns="http://www.w3.org/2000/svg">
<path d="M298.48 16.5177C298.045 16.5429 297.607 16.5602 297.181 16.598C296.905 16.6216 296.786 16.5523 296.602 16.5161C296.54 16.5035 296.475 16.4783 296.418 16.4815C295.988 16.5067 295.558 16.535 295.128 16.5633C294.996 16.6248 294.913 16.7067 294.711 16.7366C294.513 16.7649 294.281 16.7649 294.061 16.7791C293.772 16.7964 293.482 16.8138 293.193 16.8295C293.048 16.8374 292.929 16.8673 292.881 16.924C292.872 16.9334 292.969 16.9571 293.022 16.9712C293.197 17.0185 293.368 17.072 293.561 17.1082C293.745 17.1429 293.974 17.0862 294.171 17.1303C294.614 17.2295 294.619 17.2279 294.957 17.209C295.246 17.1917 295.536 17.1728 295.825 17.1602C295.882 17.1571 295.948 17.1807 296.01 17.1933C296.194 17.2279 296.312 17.3067 296.584 17.2768C296.791 17.2531 297.019 17.2484 297.234 17.2358C297.414 17.2815 297.58 17.3335 297.773 17.3697C297.953 17.4043 298.006 17.4311 297.909 17.4768C297.822 17.5193 297.699 17.5366 297.536 17.5398C297.392 17.5413 297.247 17.5555 297.102 17.5634C297.027 17.5681 296.957 17.5713 296.887 17.576C296.611 17.5933 296.611 17.5933 296.106 17.4925C295.909 17.4531 295.685 17.5083 295.496 17.4705C295.369 17.4453 295.259 17.4075 295.136 17.3807C295.084 17.3697 295 17.3681 294.935 17.3713C294.715 17.3823 294.496 17.3902 294.285 17.4106C294.136 17.4248 294.048 17.4689 294.066 17.513C294.07 17.5303 294.176 17.5555 294.237 17.5571C294.377 17.5602 294.526 17.5382 294.663 17.5492C294.794 17.5602 294.93 17.5917 295.027 17.6264C295.224 17.6988 295.448 17.6343 295.637 17.6532C295.834 17.6736 295.996 17.7366 296.185 17.7744C296.233 17.7839 296.325 17.7681 296.4 17.7634C296.615 17.7524 296.83 17.7429 297.045 17.7319C297.225 17.7776 297.418 17.8185 297.58 17.8705C297.874 17.965 298.19 18.0012 298.572 17.9555C298.787 17.9303 298.998 17.9398 299.169 18.0012C299.344 18.0642 299.546 18.0579 299.77 18.0453C299.976 18.0327 300.187 17.998 300.397 18.0421C300.854 18.1398 300.858 18.1445 301.398 18.1067C301.56 18.0957 301.683 18.0925 301.806 18.1288C301.92 18.1618 302.043 18.1902 302.161 18.2217C302.376 18.2107 302.595 18.1996 302.81 18.187C303.087 18.1697 303.24 18.1918 303.306 18.2799C303.346 18.3335 303.363 18.3823 303.46 18.4185C303.574 18.4626 303.697 18.4611 303.863 18.4485C304.021 18.4374 304.135 18.4201 304.201 18.3634C304.228 18.3398 304.28 18.3177 304.329 18.2988C304.368 18.2847 304.429 18.2626 304.465 18.2658C304.53 18.2721 304.618 18.2894 304.64 18.3099C304.855 18.5004 304.855 18.502 305.074 18.5571C305.316 18.6185 305.566 18.6737 305.785 18.7429C305.983 18.8044 306.18 18.7776 306.395 18.7776C306.557 18.7776 306.663 18.8186 306.65 18.8595C306.641 18.8831 306.579 18.9178 306.527 18.9209C306.097 18.9524 305.662 18.9792 305.228 19.0012C305.175 19.0044 305.11 18.976 305.048 18.9619C304.925 18.9335 304.816 18.8894 304.684 18.88C304.552 18.8705 304.399 18.8941 304.254 18.902C304.109 18.9099 303.956 18.9304 303.824 18.9178C303.692 18.9052 303.587 18.8595 303.464 18.8296C303.407 18.8154 303.328 18.7949 303.28 18.7997C302.96 18.8375 302.723 18.7855 302.495 18.7162C302.446 18.702 302.363 18.6926 302.301 18.6957C301.793 18.7225 301.288 18.754 300.779 18.7839C300.573 18.7965 300.406 18.7414 300.362 18.6485C300.34 18.5965 300.296 18.5445 300.296 18.4926C300.296 18.3981 300.055 18.3461 299.879 18.3571C299.59 18.3729 299.296 18.3855 299.011 18.4091C298.778 18.428 298.581 18.4091 298.423 18.3524C298.238 18.2878 298.028 18.3004 297.817 18.3177C297.659 18.3303 297.615 18.3823 297.624 18.513C297.633 18.6185 297.558 18.6516 297.273 18.6689C296.913 18.691 296.549 18.713 296.185 18.7304C296.128 18.7335 296.062 18.7067 296.005 18.6926C295.882 18.6642 295.773 18.6185 295.641 18.6091C295.509 18.5981 295.356 18.6217 295.211 18.6311C295.066 18.639 294.913 18.6611 294.781 18.65C294.649 18.639 294.54 18.5918 294.421 18.5619C294.364 18.5477 294.294 18.5272 294.237 18.5303C293.947 18.5429 293.658 18.5619 293.368 18.5792C293.043 18.5981 293.043 18.5981 292.583 18.5004C292.372 18.4563 292.162 18.491 291.955 18.5036C291.736 18.5162 291.53 18.5225 291.359 18.4595C291.245 18.4185 291.117 18.3933 290.981 18.4012C290.617 18.4201 290.257 18.4437 289.893 18.4626C289.832 18.4658 289.748 18.4579 289.7 18.4437C289.468 18.3776 289.239 18.3256 288.915 18.3587C288.634 18.387 288.331 18.3886 288.05 18.4154C287.897 18.4296 287.827 18.48 287.857 18.5193C287.875 18.5398 287.967 18.5634 288.028 18.5634C288.169 18.565 288.322 18.5414 288.454 18.5508C288.726 18.5697 288.862 18.702 289.217 18.6658C289.428 18.6437 289.647 18.6359 289.867 18.6296C289.924 18.628 289.985 18.6579 290.047 18.6737C290.222 18.7162 290.376 18.7713 290.63 18.7429C290.841 18.7209 291.065 18.7146 291.28 18.702C291.622 18.6815 291.622 18.6831 292.065 18.7792C292.276 18.8249 292.486 18.7886 292.692 18.7776C292.846 18.7697 292.991 18.754 293.114 18.776C293.302 18.8091 293.438 18.8847 293.671 18.88C293.89 18.8752 294.105 18.8532 294.325 18.8453C294.461 18.8406 294.588 18.8658 294.698 18.9083C294.812 18.9508 294.935 18.9697 295.084 18.9603C295.299 18.9477 295.518 18.9319 295.737 18.9241C295.799 18.9225 295.869 18.9367 295.926 18.9493C296.049 18.9776 296.167 19.0107 296.286 19.0406C296.501 19.0312 296.72 19.028 296.931 19.0091C297.093 18.9949 297.207 19.0012 297.339 19.0327C297.506 19.0753 297.642 19.1509 297.914 19.1146C298.05 19.0973 298.208 19.102 298.344 19.0863C298.511 19.0658 298.625 19.0737 298.743 19.1209C298.967 19.2107 299.248 19.2123 299.537 19.1776C299.853 19.1398 300.09 19.1839 300.327 19.2532C300.577 19.3257 300.577 19.3241 300.77 19.4989C300.827 19.5493 300.99 19.5729 301.126 19.5635C301.354 19.5477 301.551 19.5556 301.718 19.6154C301.893 19.68 302.104 19.6721 302.319 19.6548C302.604 19.6312 302.889 19.6107 303.122 19.7021C303.236 19.7461 303.359 19.7572 303.512 19.7461C303.947 19.7178 304.386 19.7005 304.811 19.6658C305.07 19.6438 305.219 19.6942 305.395 19.7367C305.632 19.795 305.891 19.8469 305.891 19.9713C305.891 19.9918 305.952 20.0154 306.005 20.0312C306.119 20.0643 306.242 20.0926 306.36 20.1241C306.536 20.1713 306.707 20.2107 306.948 20.1855C307.159 20.1651 307.382 20.1588 307.597 20.1446C307.812 20.1304 308.01 20.1225 308.203 20.1824C308.427 20.2501 308.663 20.3147 308.918 20.3651C309.098 20.4013 309.335 20.3399 309.528 20.3887C309.646 20.4186 309.76 20.4532 309.888 20.4784C309.94 20.4895 310.024 20.4816 310.094 20.4784C310.239 20.4721 310.388 20.4674 310.528 20.4517C310.691 20.4344 310.813 20.4375 310.936 20.4737C311.05 20.5068 311.165 20.5525 311.296 20.5619C311.494 20.5761 311.713 20.5131 311.91 20.5855C312.011 20.6218 312.139 20.6564 312.27 20.6674C312.402 20.6785 312.555 20.6548 312.696 20.6564C312.757 20.6564 312.832 20.6816 312.867 20.7021C312.889 20.7131 312.858 20.743 312.827 20.7588C312.788 20.7777 312.731 20.8029 312.674 20.806C312.239 20.8344 311.805 20.858 311.371 20.8848C311.112 20.9005 311.112 20.9005 310.59 20.8013C310.467 20.7777 310.331 20.7824 310.177 20.7934C309.971 20.8076 309.76 20.8344 309.545 20.806C309.265 20.6989 308.918 20.6895 308.549 20.7304C308.396 20.7477 308.255 20.7478 308.141 20.7178C307.9 20.658 307.646 20.6029 307.431 20.532C307.264 20.4769 307.185 20.4722 307.115 20.5478C307.093 20.5714 307.071 20.5966 307.075 20.6186C307.102 20.6974 307.15 20.7745 307.176 20.8533C307.185 20.8753 307.15 20.9005 307.128 20.9241C307.058 20.9903 306.966 20.9855 306.812 20.9304C306.658 20.8753 306.474 20.8391 306.228 20.8643C306.018 20.8863 305.79 20.8832 305.579 20.9068C305.254 20.9415 305.026 20.8911 304.794 20.8234C304.745 20.8092 304.662 20.8013 304.601 20.8045C303.947 20.8407 303.297 20.8816 302.644 20.9178C302.503 20.9257 302.376 20.9021 302.266 20.8596C302.152 20.817 302.025 20.795 301.885 20.8029C301.305 20.8359 300.726 20.8659 300.147 20.9068C299.91 20.9241 299.722 20.9037 299.559 20.8485C299.436 20.8076 299.322 20.795 299.169 20.7997C299.002 20.8044 298.884 20.8202 298.8 20.8659C298.721 20.91 298.778 20.9367 298.954 20.9714C299.142 21.0092 299.318 21.058 299.498 21.1021C299.642 21.0958 299.787 21.0832 299.928 21.0848C299.989 21.0848 300.046 21.1131 300.108 21.1289C300.283 21.1745 300.445 21.2202 300.696 21.195C300.906 21.173 301.13 21.1682 301.345 21.1541C301.643 21.1367 301.643 21.1367 302.126 21.236C302.249 21.2612 302.38 21.2596 302.538 21.2454C302.674 21.2344 302.815 21.2564 302.911 21.3037C302.951 21.3226 302.938 21.3541 302.854 21.458C302.854 21.5352 302.946 21.5005 302.977 21.4501C303.025 21.3777 302.933 21.3541 302.758 21.3934C302.635 21.4218 302.573 21.4627 302.604 21.4958C302.622 21.5131 302.705 21.5352 302.854 21.458C303.24 21.3635 303.534 21.3525 303.815 21.3273C303.982 21.3131 304.087 21.3194 304.219 21.3604C304.377 21.4092 304.535 21.4612 304.794 21.436C305.074 21.4076 305.373 21.4045 305.658 21.3808C305.921 21.3588 306.057 21.4281 306.224 21.469C306.426 21.5179 306.65 21.4627 306.834 21.4911C307.027 21.5194 307.163 21.5887 307.387 21.6013C307.711 21.5588 307.918 21.6376 308.163 21.6895C308.356 21.7289 308.585 21.6942 308.791 21.6769C309.023 21.658 309.216 21.6754 309.379 21.732C309.563 21.7966 309.769 21.7824 309.98 21.7683C310.471 21.7368 310.489 21.732 310.774 21.8187C310.98 21.8816 311.178 21.8533 311.384 21.8454C311.564 21.888 311.739 21.9336 311.928 21.9714C311.976 21.9809 312.068 21.9651 312.143 21.9604C312.358 21.9478 312.577 21.9352 312.792 21.9226C312.937 21.9147 313.091 21.8911 313.222 21.9005C313.354 21.9116 313.464 21.9573 313.582 21.9872C313.701 22.0171 313.823 22.047 313.938 22.0785C314.113 22.1258 314.28 22.1651 314.525 22.1415C314.736 22.121 314.955 22.1147 315.175 22.1006C315.451 22.0832 315.442 22.088 315.956 22.1825C316.232 22.2344 316.517 22.1714 316.798 22.1651C316.939 22.162 317.075 22.1793 317.171 22.225C317.211 22.2439 317.198 22.2754 317.211 22.3021C316.487 22.3447 315.758 22.3809 315.043 22.4329C314.767 22.4533 314.622 22.3966 314.473 22.3494C314.227 22.2738 313.902 22.384 313.67 22.2864C313.529 22.2281 313.328 22.1951 313.086 22.2234C312.946 22.2392 312.797 22.2376 312.652 22.2517C312.283 22.2864 311.945 22.288 311.651 22.1793C311.551 22.1415 311.406 22.121 311.301 22.0848C311.178 22.0454 311.059 22.0234 310.914 22.0313C310.261 22.0691 309.611 22.1068 308.962 22.1478C308.905 22.1509 308.848 22.1746 308.799 22.1919C308.677 22.236 308.716 22.2706 308.914 22.299C308.979 22.3084 309.032 22.3289 309.094 22.3447C309.212 22.3746 309.322 22.4218 309.453 22.4329C309.585 22.4439 309.739 22.4218 309.883 22.414C310.028 22.4061 310.182 22.3825 310.313 22.3919C310.445 22.4029 310.555 22.4486 310.677 22.477C310.734 22.4911 310.805 22.5147 310.862 22.5132C311.151 22.5037 311.437 22.4864 311.726 22.4722C311.906 22.5147 312.06 22.5762 312.275 22.5903C312.411 22.5998 312.555 22.5825 312.696 22.5856C312.757 22.5872 312.836 22.6108 312.867 22.6313C312.884 22.6439 312.827 22.6754 312.784 22.6911C312.617 22.751 312.389 22.7399 312.182 22.7588C311.959 22.7793 311.757 22.773 311.586 22.7116C311.472 22.6707 311.344 22.6486 311.204 22.6565C310.84 22.677 310.48 22.7006 310.116 22.7179C310.054 22.7211 309.98 22.7069 309.923 22.6959C309.462 22.5998 309.462 22.5966 309.137 22.6171C308.659 22.647 308.659 22.647 308.339 22.5636C308.277 22.5478 308.212 22.5179 308.159 22.5195C307.65 22.5447 307.145 22.5699 306.641 22.6061C306.474 22.6171 306.36 22.6171 306.237 22.5762C306.132 22.5415 306.009 22.5021 305.877 22.4927C305.741 22.4832 305.592 22.5069 305.447 22.5147C305.303 22.5226 305.149 22.5431 305.022 22.5305C304.89 22.5179 304.776 22.4738 304.662 22.4423C304.544 22.4092 304.416 22.4108 304.254 22.4234C303.754 22.4596 303.749 22.4549 303.254 22.3573C303.197 22.3462 303.122 22.3336 303.061 22.3368C302.696 22.3557 302.337 22.3793 301.972 22.3982C301.832 22.4061 301.696 22.3856 301.599 22.3399C301.56 22.321 301.573 22.2895 301.547 22.2281C301.516 22.2139 301.551 22.2392 301.56 22.2628C301.626 22.2596 301.705 22.2628 301.753 22.2502C301.876 22.2202 301.937 22.1809 301.907 22.1478C301.889 22.1305 301.806 22.1084 301.753 22.1084C301.656 22.1084 301.573 22.1431 301.547 22.2281C301.27 22.2801 300.976 22.2911 300.691 22.3163C300.524 22.3321 300.419 22.3242 300.288 22.2832C300.13 22.2329 299.967 22.184 299.708 22.2092C299.427 22.2376 299.129 22.2423 298.84 22.2644C298.506 22.2895 298.361 22.1478 298.081 22.1509C297.791 22.1541 297.501 22.1809 297.212 22.1998C296.957 22.2155 296.957 22.2155 296.431 22.1132C296.238 22.0754 296.01 22.1305 295.821 22.0911C295.694 22.0659 295.584 22.0281 295.461 22.0013C295.408 21.9903 295.325 21.9903 295.259 21.9935C294.895 22.0124 294.527 22.025 294.176 22.0596C293.776 22.1006 293.474 22.0565 293.188 21.9635C292.829 21.9809 292.464 21.9903 292.109 22.0202C291.85 22.0423 291.701 21.9903 291.525 21.9478C291.464 21.9336 291.411 21.91 291.346 21.9037C291.28 21.8974 291.201 21.91 291.13 21.9147C290.841 21.932 290.542 21.9399 290.262 21.9683C289.915 22.0045 289.783 21.8753 289.516 21.8596C289.336 21.9368 289.239 22.0423 288.884 22.0502C288.594 22.0565 288.305 22.0817 288.015 22.099C287.87 22.1069 287.726 22.1163 287.581 22.1242C287.348 22.1384 287.239 22.1998 287.287 22.2943C287.313 22.3462 287.335 22.3982 287.357 22.4502C287.401 22.5431 287.291 22.6218 287.107 22.6329C286.598 22.6628 286.093 22.6943 285.585 22.721C285.448 22.7289 285.317 22.7021 285.207 22.6596C285.093 22.6171 284.966 22.5982 284.825 22.6061C284.316 22.636 283.812 22.6675 283.303 22.6943C283.246 22.6974 283.171 22.6817 283.114 22.6691C282.991 22.6407 282.873 22.6077 282.754 22.5777C282.465 22.5919 282.18 22.6014 281.895 22.6203C281.434 22.6486 281.434 22.6502 281.096 22.5636C281.035 22.5478 280.973 22.5179 280.916 22.5195C280.697 22.5258 280.482 22.5415 280.262 22.5557C279.617 22.5966 279.617 22.5966 279.429 22.5494C279.257 22.5053 279.104 22.4518 278.845 22.477C278.564 22.5053 278.266 22.5147 277.976 22.5305C277.761 22.5415 277.546 22.5541 277.331 22.5573C277.274 22.5588 277.213 22.5289 277.151 22.5132C276.976 22.4644 276.805 22.425 276.563 22.4517C276.423 22.4675 276.274 22.4707 276.129 22.4785C275.752 22.5006 275.752 22.5006 275.133 22.4061C275.072 22.3966 274.997 22.3856 274.936 22.3903C274.427 22.4187 273.922 22.4502 273.413 22.477C273.352 22.4801 273.277 22.4706 273.216 22.4628C272.522 22.3714 272.522 22.3714 271.785 22.4155C271.505 22.4313 271.496 22.4376 271.202 22.3541C271.07 22.3179 270.96 22.3006 270.807 22.3116C270.228 22.3494 269.644 22.3746 269.069 22.4187C268.811 22.4376 268.661 22.3903 268.486 22.3478C268.424 22.3336 268.359 22.3021 268.306 22.3037C267.727 22.3336 267.148 22.3699 266.568 22.3998C266.516 22.4029 266.45 22.3714 266.389 22.3573C266.27 22.3289 266.156 22.2864 266.024 22.2769C265.888 22.2675 265.739 22.2911 265.59 22.299C265.226 22.3195 265.226 22.3179 264.805 22.225C264.747 22.2124 264.673 22.195 264.616 22.1982C264.037 22.2297 263.453 22.2565 262.878 22.3021C262.549 22.3273 262.326 22.2817 262.093 22.2155C262.045 22.2013 261.961 22.195 261.9 22.1982C261.246 22.2344 260.597 22.2754 259.943 22.3116C259.807 22.3195 259.675 22.2927 259.566 22.2517C259.39 22.1872 259.184 22.195 258.965 22.2092C258.46 22.2423 258.456 22.2407 258.157 22.1651C258.096 22.1494 258.043 22.1289 257.977 22.121C257.916 22.1132 257.837 22.1179 257.771 22.121C257.482 22.1368 257.192 22.1541 256.902 22.1714C256.613 22.1887 256.319 22.1982 256.034 22.225C255.683 22.2581 255.516 22.1557 255.27 22.1084C254.91 22.1289 254.542 22.1415 254.186 22.1746C253.914 22.1998 253.787 22.1305 253.607 22.0943C253.546 22.0817 253.48 22.0549 253.423 22.058C252.769 22.0927 252.116 22.1305 251.466 22.173C251.308 22.1824 251.203 22.1698 251.071 22.132C250.777 22.047 250.764 22.0502 250.273 22.0817C250.058 22.0958 249.851 22.1084 249.667 22.0439C249.505 21.9856 249.307 21.9714 249.075 21.9903C248.79 22.0139 248.496 22.0265 248.206 22.0423C247.917 22.0596 247.627 22.0832 247.337 22.0911C247.105 22.099 246.964 22.025 246.78 21.9872C246.723 21.9762 246.644 21.9746 246.578 21.9777C246.289 21.9919 245.99 22.0029 245.71 22.0297C245.367 22.0628 245.179 21.9761 244.937 21.9258C244.885 21.9147 244.797 21.921 244.731 21.9258C244.222 21.9541 243.718 21.9856 243.209 22.0155C243.029 21.973 242.844 21.9321 242.664 21.8895C242.375 21.9053 242.085 21.9226 241.796 21.9383C241.576 21.9509 241.353 21.9557 241.146 21.9793C240.879 22.0108 240.747 21.9368 240.567 21.9005C240.506 21.888 240.44 21.8612 240.383 21.8643C240.019 21.8817 239.655 21.9006 239.295 21.9273C238.953 21.9541 238.817 21.8123 238.536 21.8139C238.246 21.8155 237.948 21.836 237.667 21.8643C237.342 21.8974 237.114 21.847 236.882 21.7793C236.833 21.7651 236.75 21.7572 236.689 21.7604C236.324 21.7793 235.965 21.8029 235.6 21.8218C235.539 21.825 235.464 21.8171 235.403 21.8076C234.71 21.7147 234.71 21.7132 234.407 21.732C234.192 21.7446 233.973 21.7604 233.753 21.7683C233.692 21.7714 233.617 21.7572 233.56 21.7446C233.104 21.6486 233.104 21.647 232.775 21.6659C232.485 21.6832 232.196 21.7005 231.906 21.7179C231.726 21.6753 231.542 21.6344 231.362 21.5919C231.002 21.6124 230.634 21.6281 230.278 21.6564C230.111 21.669 230.002 21.6643 229.875 21.6249C229.717 21.5777 229.559 21.5226 229.295 21.5494C229.015 21.5777 228.716 21.5809 228.431 21.6045C228.089 21.6328 227.948 21.4895 227.672 21.4911C227.382 21.4927 227.084 21.5131 226.803 21.5415C226.479 21.5745 226.25 21.5242 226.018 21.4564C225.97 21.4423 225.886 21.4344 225.825 21.4375C225.026 21.4832 224.232 21.5289 223.434 21.5777C222.942 21.6076 222.942 21.6092 222.008 21.5226C221.942 21.5163 221.871 21.51 221.806 21.5131C221.516 21.5273 221.218 21.5383 220.937 21.5651C220.595 21.5982 220.406 21.5131 220.165 21.4612C220.112 21.4501 220.029 21.4564 219.958 21.4596C219.739 21.4706 219.524 21.4848 219.305 21.4974C219.015 21.5147 218.725 21.532 218.436 21.5494C218.256 21.5084 218.072 21.4659 217.892 21.4249C217.532 21.4454 217.164 21.4564 216.808 21.4895C216.536 21.5147 216.409 21.4486 216.229 21.4108C216.167 21.3982 216.102 21.3714 216.045 21.373C215.391 21.4076 214.737 21.4438 214.088 21.4879C213.82 21.5068 213.697 21.436 213.517 21.3997C213.456 21.3887 213.386 21.3682 213.329 21.3714C212.894 21.3934 212.46 21.4202 212.026 21.447C211.78 21.4627 211.78 21.4627 211.245 21.3651C211.183 21.3541 211.113 21.343 211.052 21.3462C209.674 21.4249 208.3 21.5084 206.923 21.5872C206.782 21.595 206.655 21.5714 206.545 21.5289C206.431 21.4864 206.304 21.4643 206.164 21.4722C205.585 21.5053 205.001 21.5352 204.426 21.5761C204.189 21.5935 204.001 21.573 203.838 21.5178C203.715 21.4769 203.601 21.4612 203.448 21.4706C203.158 21.4895 202.869 21.5053 202.579 21.5226C202.289 21.5399 202 21.5572 201.71 21.5746C201.421 21.5919 201.127 21.6013 200.842 21.6281C200.49 21.6612 200.319 21.5635 200.078 21.5147C199.644 21.5383 199.209 21.562 198.779 21.5872C198.2 21.6202 197.621 21.6565 197.042 21.6879C196.989 21.6911 196.923 21.6627 196.862 21.6486C196.682 21.6092 196.55 21.5541 196.283 21.5714C194.984 21.6549 193.676 21.7257 192.373 21.8076C192.101 21.825 191.983 21.7572 191.799 21.721C191.737 21.71 191.667 21.688 191.61 21.6911C190.886 21.7305 190.162 21.7746 189.438 21.8171C189.144 21.8344 189.144 21.8344 188.653 21.7368C188.596 21.7257 188.521 21.7116 188.459 21.7147C187.516 21.7683 186.577 21.825 185.634 21.8801C185.493 21.8879 185.366 21.8659 185.252 21.8234C185.142 21.7809 185.011 21.7572 184.875 21.7651C184.006 21.8155 183.133 21.8643 182.269 21.9194C182.036 21.9352 181.843 21.921 181.676 21.8643C181.558 21.8234 181.439 21.8061 181.29 21.8155C179.987 21.8927 178.684 21.9667 177.381 22.0486C177.131 22.0643 176.955 22.0344 176.797 21.9824C176.67 21.9415 176.56 21.9336 176.402 21.9399C176.235 21.9478 176.135 21.9651 176.043 22.0124C175.924 22.0738 175.849 22.151 175.569 22.1557C175.279 22.1604 174.985 22.1793 174.7 22.2061C174.428 22.2329 174.301 22.162 174.129 22.1195C174.002 22.0895 173.884 22.0848 173.721 22.099C173.572 22.1116 173.48 22.1383 173.392 22.1887C173.199 22.2958 173.182 22.2958 172.945 22.2281C172.818 22.1919 172.703 22.1635 172.563 22.1698C171.984 22.2013 171.405 22.236 170.826 22.2722C170.492 22.2927 170.488 22.2958 170.238 22.2171C170.115 22.1777 169.996 22.1588 169.852 22.1683C168.259 22.2628 166.666 22.3541 165.073 22.4533C164.828 22.4691 164.661 22.436 164.485 22.3888C164.428 22.373 164.371 22.351 164.306 22.3447C164.24 22.3384 164.165 22.3447 164.095 22.3478C162.937 22.4155 161.774 22.4801 160.62 22.5557C160.357 22.573 160.216 22.5226 160.036 22.4817C159.975 22.4675 159.922 22.4455 159.856 22.4392C159.791 22.4344 159.712 22.4454 159.641 22.4502C158.483 22.5179 157.32 22.5825 156.166 22.6581C155.89 22.6754 155.772 22.6092 155.592 22.5746C155.53 22.562 155.464 22.5384 155.407 22.5415C155.043 22.5588 154.683 22.5825 154.319 22.6029C153.451 22.6549 152.582 22.7037 151.713 22.7573C151.379 22.7778 151.235 22.6376 150.954 22.6439C150.59 22.6518 150.23 22.6833 149.866 22.7053C149.576 22.7226 149.287 22.7384 148.997 22.7573C148.712 22.7746 148.712 22.7746 148.001 22.6832C147.94 22.6754 147.865 22.6644 147.804 22.6675C146.79 22.7258 145.772 22.784 144.763 22.847C144.53 22.8612 144.337 22.8533 144.171 22.7951C144.052 22.7541 143.929 22.7336 143.785 22.7431C142.262 22.8329 140.744 22.9226 139.221 23.0108C139.164 23.014 139.09 22.9982 139.033 22.9856C138.91 22.9573 138.791 22.9242 138.673 22.8943C138.585 22.9305 138.471 22.9636 138.414 23.0045C138.335 23.0596 138.23 23.0754 138.063 23.0848C137.896 23.0943 137.791 23.0912 137.659 23.0502C137.501 22.9998 137.339 22.9604 137.08 22.9762C135.487 23.0754 133.895 23.1652 132.302 23.2628C132.039 23.2786 131.916 23.2092 131.732 23.173C131.67 23.162 131.6 23.1447 131.543 23.1478C130.889 23.1841 130.24 23.2234 129.586 23.2612C127.774 23.3683 125.962 23.4707 124.154 23.5841C123.825 23.6046 123.601 23.5652 123.369 23.4975C123.321 23.4833 123.237 23.4754 123.176 23.4786C120.64 23.6266 118.104 23.7762 115.572 23.9258C115.436 23.9337 115.304 23.9085 115.195 23.8675C115.08 23.825 114.953 23.8046 114.813 23.8124C113.655 23.8801 112.496 23.9479 111.338 24.0172C111.048 24.0345 111.044 24.0361 110.746 23.9605C110.684 23.9447 110.618 23.9148 110.57 23.918C110.469 23.9258 110.373 23.9652 110.302 24.0187C110.232 24.0754 110.122 24.0912 109.96 24.1022C109.793 24.1132 109.684 24.1085 109.556 24.0707C109.394 24.0235 109.245 23.9778 108.982 23.9935C105.651 24.1951 102.321 24.3888 98.991 24.5888C98.7233 24.6046 98.6005 24.5384 98.4162 24.5022C98.3548 24.4912 98.2934 24.4754 98.2275 24.4723C98.1573 24.4691 98.0827 24.4786 98.0126 24.4833C92.5806 24.803 87.1488 25.1243 81.7169 25.444C81.3922 25.4629 81.3966 25.4629 81.0412 25.6078C80.9973 25.6251 80.9402 25.6487 80.8788 25.6519C79.2158 25.7526 77.5486 25.8503 75.8813 25.9479C75.1573 25.9904 74.4334 26.0346 73.7094 26.0755C73.4505 26.0897 73.4505 26.0897 72.8319 26.2598C72.7792 26.2739 72.7177 26.2928 72.6563 26.296C69.7605 26.4676 66.8646 26.6393 63.9644 26.8078C63.7362 26.8204 63.5519 26.8488 63.4466 26.9244C63.3721 26.9779 63.2755 27.0094 63.1307 27.0188C61.1037 27.1385 59.0766 27.2598 57.0451 27.3763C56.8038 27.3905 56.659 27.4346 56.5405 27.5008C56.501 27.5228 56.4659 27.548 56.4088 27.5637C56.3562 27.5779 56.2772 27.5826 56.2114 27.5874C54.4739 27.6897 52.7365 27.7953 50.9946 27.8929C50.7357 27.9071 50.6303 27.9653 50.5031 28.0268C50.4592 28.0472 50.4285 28.0756 50.3714 28.0898C50.3144 28.1024 50.231 28.1023 50.1608 28.1055C48.7129 28.1905 47.265 28.2772 45.8171 28.3622C45.5363 28.3543 45.4748 28.4457 45.3388 28.5008C45.2906 28.5197 45.2555 28.5449 45.1985 28.5575C45.1371 28.5701 45.058 28.5685 44.9834 28.5716C43.8251 28.6394 42.6667 28.7118 41.504 28.7748C41.2364 28.789 41.1837 28.8693 41.0389 28.9244C40.9906 28.9417 40.9424 28.9685 40.8854 28.9732C40.1614 29.0189 39.4375 29.0614 38.7135 29.1024C38.4722 29.1165 38.4722 29.115 38.0466 29.2709C37.9983 29.2882 37.9412 29.3071 37.8798 29.3118C36.7961 29.378 35.708 29.441 34.6198 29.5055C34.4794 29.5134 34.3829 29.5512 34.3127 29.6048C34.2425 29.6583 34.1416 29.693 34.0012 29.7008C33.1324 29.7528 32.2636 29.8063 31.3949 29.8536C31.1535 29.8662 30.9956 29.9056 30.8903 29.9764C30.8113 30.03 30.7148 30.0567 30.5612 30.0662C29.6925 30.1166 28.8238 30.1717 27.9506 30.2158C27.6961 30.2284 27.5645 30.2819 27.4592 30.3481C27.3758 30.4016 27.2792 30.4205 27.1169 30.43C25.5242 30.5213 23.9271 30.6127 22.3388 30.7135C22.0712 30.7308 21.9351 30.6757 21.7596 30.6363C21.5095 30.5812 21.277 30.5213 21.277 30.3985C21.277 30.3796 21.2024 30.3575 21.1498 30.3418C20.7593 30.2237 20.7593 30.2237 20.6978 30.0977C20.6627 30.0205 20.6232 29.9418 20.5925 29.863C20.5355 29.7339 20.395 29.7008 19.9914 29.7245C19.8466 29.7323 19.7018 29.7433 19.557 29.7496C19.342 29.7607 19.1797 29.7087 19.1402 29.6142C19.1182 29.5622 19.092 29.5103 19.07 29.4583C19.2894 29.4457 19.285 29.4441 19.6711 29.2536C19.8334 29.1733 19.8335 29.1733 19.522 29.0929C19.4035 29.063 19.2894 29.0299 19.1621 29.0016C19.1051 28.989 19.0305 28.9811 18.9691 28.9843C18.6049 29.0032 18.2452 29.0252 17.8854 29.0473C17.3062 29.0819 17.3061 29.0819 16.7182 28.9213C16.6699 28.9087 16.5953 28.8851 16.6041 28.8725C16.6524 28.8142 16.7708 28.789 16.92 28.7827C17.1394 28.7732 17.3544 28.7575 17.5694 28.7449C17.7142 28.737 17.859 28.7276 18.0037 28.7197C18.1398 28.6599 18.2802 28.6016 18.4075 28.5402C18.6093 28.4457 18.6092 28.4425 18.3328 28.3764C18.1573 28.3323 17.9687 28.2929 17.7888 28.2519C17.5738 28.2645 17.3544 28.2787 17.1394 28.2897C16.8674 28.3039 16.7577 28.274 16.6875 28.1716C16.626 28.0819 16.7006 28.0047 16.9112 27.9858C17.1262 27.9669 17.3281 27.9543 17.4378 27.874C17.5431 27.7968 17.7274 27.7669 17.9555 27.7606C18.1003 27.7559 18.2451 27.7449 18.3899 27.7354C18.5786 27.7228 18.6795 27.6425 18.64 27.5527C18.6181 27.4944 18.5742 27.4456 18.4031 27.433C17.644 27.3779 17.6352 27.3795 17.2579 27.2724C17.2228 27.2629 17.1965 27.2346 17.2097 27.2204C17.2316 27.1968 17.2799 27.1622 17.3325 27.1574C17.8371 27.1228 18.3417 27.0913 18.8462 27.0677C19.013 27.0598 19.1359 27.0488 19.1929 26.9905C19.2719 26.9102 19.2368 26.8362 19.0832 26.781C19.0349 26.7637 18.9559 26.7417 18.9032 26.7432C18.3241 26.7716 17.7493 26.8078 17.1701 26.8362C17.1175 26.8393 17.021 26.8125 16.9991 26.7921C16.9552 26.7543 17.021 26.7039 17.1745 26.6865C17.3764 26.6629 17.5826 26.6613 17.7186 26.5826C17.9073 26.4708 18.1398 26.3684 18.3504 26.2613C18.3855 26.2424 18.4426 26.2062 18.4294 26.2031C18.3198 26.1684 18.1925 26.1416 18.0784 26.1086C17.8854 26.0534 17.8853 25.9763 17.9292 25.9023C17.9643 25.8424 18.0959 25.8188 18.2583 25.8188C18.3285 25.8188 18.4162 25.8188 18.4733 25.8046C18.6224 25.77 18.6707 25.7259 18.5961 25.6928C18.5522 25.6739 18.4733 25.6471 18.4207 25.6503C17.4817 25.7023 16.5383 25.7527 15.6037 25.8172C15.3273 25.8361 15.2001 25.7763 15.0334 25.7337C14.9062 25.7007 14.7876 25.6881 14.6297 25.7117C14.4805 25.7337 14.3358 25.7212 14.2436 25.6692C14.169 25.6267 14.3006 25.5905 14.656 25.5495C14.7218 25.5416 14.7964 25.5369 14.8447 25.5211C15.3536 25.3511 15.3536 25.3495 15.7046 25.3274C16.0469 25.307 16.0469 25.3054 16.2268 25.2141C16.3102 25.1715 16.4023 25.129 16.4812 25.0849C16.512 25.0676 16.5647 25.0361 16.5471 25.0266C16.4506 24.9778 16.3189 24.9668 16.1653 24.9778C15.8231 25.0046 15.4195 24.9826 15.2396 25.1322C15.1694 25.1889 15.0597 25.2046 14.9018 25.2141C13.3134 25.3054 11.725 25.403 10.1323 25.4912C9.87346 25.5054 9.75506 25.5637 9.65415 25.6282C9.56639 25.6818 9.46984 25.6975 9.30311 25.707C9.13638 25.7164 9.00469 25.7212 8.90816 25.6692C8.85112 25.6377 8.8994 25.5936 9.03103 25.5495C9.2197 25.4865 9.18458 25.4078 9.12315 25.3337C9.07928 25.2849 8.94326 25.2503 8.79847 25.2534C8.58348 25.2597 8.37731 25.2771 8.19742 25.2141C8.09212 25.1778 7.96046 25.1526 7.84199 25.1211C7.61384 25.0566 7.38567 24.9904 7.06537 25.0329C6.84599 25.0172 6.69242 24.9605 6.51692 24.9164C6.22294 24.844 6.19662 24.8329 6.40722 24.7558C6.64416 24.6692 6.45984 24.5558 6.59147 24.4707C6.73188 24.3794 6.925 24.2991 7.09612 24.214C7.13999 24.192 7.1795 24.1715 7.22337 24.1495C7.12246 24.118 7.03033 24.0786 6.91187 24.0565C6.7583 24.0282 6.67932 23.9935 6.68809 23.8959C6.65738 23.8817 6.67045 23.9179 6.70555 23.9274C6.74504 23.9368 6.84164 23.929 6.88991 23.918C7.01276 23.888 7.07413 23.8487 7.04341 23.8156C7.02586 23.7983 6.94256 23.7762 6.88991 23.7762C6.79338 23.7762 6.71003 23.8109 6.6837 23.8959C6.19229 23.9605 5.68324 23.992 5.17427 24.0172C5.12162 24.0203 5.05584 23.9888 4.99441 23.9731C4.79258 23.9195 4.79256 23.9211 4.20022 23.9053C4.1388 23.9038 4.05547 23.8817 4.02476 23.8597C3.89752 23.7636 3.90194 23.6581 3.84051 23.5557C3.95459 23.4896 4.06858 23.425 4.18705 23.3604C4.42398 23.2297 4.73119 23.1148 4.91547 22.9715C4.87598 22.8943 4.82332 22.8171 5.01637 22.7541C5.56483 22.6754 5.56048 22.6754 5.70966 22.5998C6.13526 22.3856 6.55645 22.1698 6.9996 21.9588C7.11807 21.9037 7.11808 21.8738 6.90748 21.8502C6.84166 21.8439 6.77136 21.8423 6.70116 21.8454C6.48178 21.8565 6.2624 21.8848 6.04741 21.8785C5.83241 21.8738 5.67446 21.8045 5.49895 21.762C5.31906 21.7179 5.13917 21.6722 4.95928 21.6265C4.75306 21.6313 4.54688 21.6753 4.34066 21.6045C4.1827 21.5494 3.98527 21.51 3.80538 21.4643C3.9414 21.3446 4.19592 21.2533 4.39336 21.1478C4.57326 21.0517 4.57755 21.0533 5.06019 20.9793C5.28834 20.9446 5.36733 20.7666 5.17427 20.7147C4.94172 20.6517 4.69607 20.5934 4.45913 20.5336C4.25291 20.5383 4.04235 20.5808 3.84491 20.51C3.69134 20.4564 3.5158 20.4202 3.26132 20.4407C2.83133 20.4753 2.39257 20.4926 1.9582 20.521C1.80902 20.5304 1.64663 20.5241 1.58081 20.4706C1.53694 20.4328 1.66419 20.3808 1.80898 20.3698C2.02836 20.354 2.22578 20.3351 2.33547 20.2564C2.44078 20.1777 2.63381 20.154 2.86197 20.143C2.9234 20.1399 2.99365 20.121 3.02436 20.1021C3.18232 20.0107 3.35784 19.932 3.69569 19.9351C3.83609 19.9036 3.91064 19.8643 3.86676 19.8265C3.84043 19.806 3.74834 19.7792 3.69569 19.7824C3.33151 19.7981 2.96735 19.8139 2.61195 19.8422C2.44522 19.8548 2.31791 19.858 2.21261 19.8107C2.13802 19.7792 2.1775 19.7367 2.31791 19.691C2.44076 19.6516 2.4759 19.606 2.46713 19.5524C2.44519 19.428 2.31353 19.3918 1.89232 19.3997C1.58957 19.406 1.51498 19.3855 1.44916 19.2784C1.43161 19.2532 1.38781 19.2186 1.41852 19.2012C1.60719 19.0941 1.73006 18.9619 2.08546 18.9115C2.22586 18.8926 2.37498 18.8926 2.46273 18.8516C2.55049 18.8107 2.6295 18.7634 2.72164 18.7241C2.83572 18.6768 2.91462 18.6327 2.86197 18.6028C2.77422 18.5493 2.63386 18.5445 2.47152 18.5634C2.33111 18.5792 2.18194 18.5807 2.03714 18.5902C1.77827 18.6075 1.56771 18.5666 1.537 18.4973C1.45363 18.3146 1.36586 18.1335 1.29127 17.9508C1.28249 17.9288 1.30437 17.9004 1.33947 17.8815C1.46232 17.8154 1.594 17.7524 1.72125 17.6878C1.87043 17.6138 2.1074 17.628 2.30923 17.6138C2.59443 17.5933 2.59433 17.5949 2.97605 17.4437C3.12523 17.3838 3.38412 17.4075 3.53769 17.3539C3.58595 17.3366 3.66054 17.3083 3.64738 17.2925C3.62983 17.272 3.54212 17.2563 3.47631 17.2468C3.41488 17.2374 3.34031 17.2327 3.27449 17.2374C2.47594 17.2831 1.6818 17.3319 0.883244 17.376C0.747227 17.3839 0.598043 17.3492 0.549779 17.3004C0.501515 17.2547 0.514635 17.1996 0.505859 17.1476C0.633101 17.083 0.777838 17.0232 0.887529 16.9539C0.970894 16.9004 1.06744 16.8767 1.23417 16.8736C1.45355 16.8689 1.66857 16.85 1.91428 16.8358C2.37059 16.6059 2.8181 16.3649 3.30952 16.135C3.50696 16.0421 3.45878 15.9476 3.49827 15.8484C3.53775 15.757 3.83171 15.7712 4.02915 15.7444C4.18711 15.7224 4.23969 15.672 4.17826 15.6373C4.14316 15.6169 4.06423 15.5932 4.0028 15.5932C3.85801 15.5932 3.71322 15.6074 3.56843 15.6153C3.42364 15.6232 3.25691 15.6184 3.13845 15.6452C3.02437 15.6704 2.94974 15.7239 2.87515 15.7696C2.79178 15.82 2.68217 15.8373 2.51544 15.8405C2.30044 15.8436 2.08546 15.8578 1.87046 15.8688C1.63353 15.8074 1.38777 15.7476 1.15961 15.683C1.11574 15.6704 1.10692 15.6342 1.1113 15.6106C1.12008 15.5492 1.05428 15.5113 0.909489 15.4814C0.786635 15.4562 0.68571 15.42 0.571631 15.3885C0.659384 15.346 0.755947 15.305 0.826149 15.2594C0.979717 15.1633 1.17279 15.094 1.50626 15.0972C1.63789 15.0357 1.74316 14.9602 1.91428 14.9176C2.07662 14.8767 2.35305 14.9176 2.47591 14.8247C2.53734 14.779 2.62953 14.7271 2.74799 14.7082C2.93666 14.6782 3.18237 14.694 3.29206 14.6058C3.35787 14.5554 3.45436 14.5097 3.5816 14.4971C3.7264 14.483 3.87554 14.4798 3.98084 14.4499C4.03788 14.4342 4.09932 14.409 4.09932 14.3869C4.09932 14.3727 4.01163 14.3507 3.95021 14.3412C3.89317 14.3302 3.81849 14.3223 3.75268 14.3255C3.53329 14.3349 3.3183 14.3523 3.09892 14.3617C3.03749 14.3649 2.96731 14.3538 2.9015 14.3444C2.70844 14.3192 2.72158 14.2877 2.87515 14.231C3.02871 14.1759 3.13847 14.105 3.26571 14.0404C3.40611 14.0294 3.58159 14.0341 3.67812 14.0042C3.84046 13.9554 3.95451 13.8845 4.08614 13.8231C4.23093 13.8136 4.38011 13.8105 4.51612 13.7932C4.57316 13.7869 4.59951 13.7522 4.64777 13.7318C4.73553 13.6924 4.81018 13.6357 4.92864 13.6168C5.1217 13.5884 5.35863 13.5995 5.47271 13.5128C5.53852 13.4625 5.6394 13.4089 5.76225 13.4058C6.10449 13.3995 6.24929 13.3128 6.42479 13.2309C6.55642 13.1695 6.83724 13.201 6.98203 13.1396C7.07856 13.1002 7.14881 13.0514 7.24533 13.0136C7.28482 12.9979 7.36816 12.99 7.43397 12.9853C7.79376 12.9617 8.15792 12.9443 8.51771 12.9191C8.57475 12.9144 8.62744 12.8908 8.67132 12.8719C8.76346 12.8309 8.82043 12.7742 8.93451 12.7475C9.04859 12.7207 9.21091 12.7207 9.35132 12.7128C9.80325 12.6892 9.83838 12.6955 10.0446 12.5616C10.2113 12.453 10.6194 12.5301 10.7555 12.4104C10.8344 12.3412 10.9792 12.2845 11.238 12.2766C11.6022 12.2656 11.962 12.2356 12.3262 12.2152C12.6508 12.1963 12.6465 12.1963 12.9975 12.0498C13.1554 11.9837 13.388 11.9931 13.5942 11.9805C13.8136 11.9679 14.0154 11.949 14.1207 11.8703C14.226 11.7931 14.4191 11.7679 14.6428 11.7569C14.8491 11.7459 15.0817 11.7537 15.244 11.6907C15.6389 11.5396 15.6345 11.538 15.9109 11.5222C16.3453 11.497 16.7797 11.4718 17.2141 11.4451C17.5036 11.4277 17.8064 11.4246 18.0784 11.3899C18.2759 11.3647 18.3636 11.2766 18.4908 11.2151C18.8506 11.1915 19.2104 11.1679 19.5702 11.1458C20.0747 11.1143 20.5837 11.086 21.0927 11.0561C21.3121 10.9962 21.3428 10.8639 21.7114 10.8576C21.9308 10.8545 22.1458 10.834 22.3652 10.8214C22.7293 10.7994 23.0891 10.771 23.4533 10.76C23.7297 10.7521 23.7779 10.6671 23.9227 10.6135C23.9709 10.5946 24.0149 10.5679 24.0719 10.5631C24.6423 10.519 25.2302 10.5096 25.7874 10.445C25.8445 10.4387 25.8971 10.4057 25.9103 10.382C25.9191 10.3694 25.8445 10.3458 25.7962 10.3348C25.7392 10.3222 25.6646 10.3096 25.6032 10.3127C23.7911 10.4183 21.979 10.5254 20.1669 10.6309C19.9125 10.6466 19.9125 10.645 19.2938 10.8183C19.2411 10.8324 19.1796 10.8482 19.1138 10.8529C18.8243 10.8718 18.5303 10.8828 18.2451 10.9065C18.0125 10.9254 17.8196 10.9065 17.6528 10.8498C17.5344 10.8088 17.4114 10.7962 17.2623 10.7994C17.0955 10.8041 16.9859 10.8214 16.8894 10.8639C16.7621 10.9222 16.6963 10.9978 16.4287 11.0135C15.1957 11.0813 13.9627 11.1569 12.7342 11.2293C12.5631 11.2073 12.4797 11.1742 12.5236 11.1348C12.5499 11.1112 12.6026 11.0797 12.6552 11.0765C13.1598 11.0435 13.6688 11.0151 14.1733 10.9836C14.2435 10.9789 14.3401 10.982 14.3795 10.9663C14.5726 10.8954 14.6429 10.7805 15.0071 10.7726C15.2177 10.7679 15.4326 10.7443 15.6345 10.7222C15.6915 10.7159 15.7442 10.6828 15.7573 10.6592C15.7617 10.6466 15.6915 10.623 15.6389 10.612C15.4458 10.5663 15.2221 10.6214 15.029 10.5899C14.9632 10.5789 14.871 10.5631 14.8578 10.5442C14.8491 10.5269 14.9237 10.4986 14.9763 10.4812C15.0246 10.4655 15.0904 10.4513 15.1562 10.4466C15.7353 10.4104 16.3146 10.3726 16.8938 10.3442C17.1307 10.3332 17.2974 10.2938 17.4027 10.2214C17.4817 10.1678 17.5782 10.1395 17.7274 10.1316C18.7409 10.0734 19.7544 10.0088 20.7724 9.95525C21.0269 9.94265 21.1585 9.89069 21.2638 9.82297C21.3472 9.76942 21.4438 9.75052 21.6061 9.74107C23.0584 9.65918 24.5019 9.56784 25.9542 9.4891C26.2219 9.47492 26.3009 9.4072 26.4369 9.34893C26.4852 9.32846 26.5158 9.30326 26.5772 9.29066C26.6387 9.27806 26.7176 9.27962 26.7922 9.27648C27.9506 9.20876 29.109 9.13633 30.2717 9.07333C30.5437 9.05916 30.5963 8.9804 30.7367 8.92529C30.785 8.90796 30.8289 8.87962 30.8859 8.8749C31.7547 8.82135 32.6234 8.77096 33.4922 8.71899C34.0713 8.68434 34.6505 8.64969 35.2297 8.61662C35.5149 8.60087 35.5149 8.59929 35.901 8.44967C35.9449 8.43235 36.0063 8.41187 36.0634 8.40715C37.7307 8.30636 39.3936 8.21031 41.0609 8.1111C41.2013 8.10322 41.3022 8.06698 41.3724 8.01344C41.4426 7.95989 41.5436 7.92367 41.6796 7.9158C42.9827 7.83705 44.2858 7.75989 45.5933 7.68587C45.8303 7.67327 45.997 7.63547 46.1023 7.5646C46.1812 7.51106 46.2778 7.48272 46.4269 7.47485C47.7301 7.39925 49.0333 7.31892 50.3408 7.24648C50.5909 7.23231 50.7137 7.17877 50.8366 7.11577C50.8804 7.09373 50.9156 7.0575 50.9682 7.05435C51.6176 7.01026 52.2625 6.96458 52.9163 6.93466C53.1883 6.92206 53.2805 6.85591 53.3902 6.79292C53.4779 6.74252 53.5789 6.72521 53.7456 6.71891C54.1098 6.70473 54.4696 6.67797 54.825 6.6512C54.8776 6.64647 54.9434 6.61182 54.9478 6.58978C54.9566 6.54883 54.8556 6.52048 54.6889 6.5063C52.9514 6.60867 51.2096 6.71103 49.4721 6.81339C49.1869 6.83072 49.1868 6.83073 48.8007 6.98034C48.7569 6.99766 48.6954 7.01814 48.6339 7.02286C46.9666 7.12208 45.3038 7.21972 43.6365 7.31894C43.4961 7.32681 43.3952 7.36303 43.325 7.41658C43.2547 7.47012 43.1537 7.50634 43.0177 7.51422C41.425 7.60871 39.8323 7.70478 38.2352 7.79455C37.9983 7.80715 37.8316 7.84335 37.7263 7.9158C37.6473 7.96934 37.5508 7.9977 37.4016 8.00557C35.8791 8.09376 34.3609 8.18667 32.834 8.27171C32.6805 8.27959 32.5664 8.23392 32.5752 8.1914C32.5796 8.16935 32.6453 8.13314 32.698 8.12999C33.4921 8.07802 34.282 8.02447 35.0805 7.9851C35.3482 7.9725 35.4271 7.9032 35.5631 7.84493C35.607 7.82446 35.6421 7.79769 35.6992 7.78666C35.7606 7.77407 35.8396 7.77565 35.9142 7.7725C37.7965 7.66068 39.6788 7.5473 41.5655 7.44178C41.8375 7.42603 41.8901 7.34885 42.0305 7.29373C42.0788 7.27484 42.1227 7.2465 42.1797 7.24335C42.7589 7.20555 43.3381 7.17247 43.9172 7.1394C44.9308 7.07956 45.9443 7.01971 46.9622 6.95986C47.2562 6.94254 47.2562 6.94253 47.6335 6.7945C47.6774 6.77717 47.7389 6.75514 47.7959 6.75199C50.4768 6.59293 53.1577 6.43387 55.8385 6.27638C55.9789 6.26851 56.0798 6.23229 56.15 6.17874C56.2202 6.12677 56.3211 6.08897 56.4572 6.07952C60.0813 5.86534 63.7012 5.65115 67.3254 5.44012C67.5623 5.42595 67.729 5.39287 67.8343 5.31885C67.9089 5.26531 68.0098 5.23697 68.159 5.22752C72.143 4.99287 76.1269 4.75821 80.1153 4.52199C82.7962 4.3645 85.4771 4.20386 88.1579 4.04953C88.4036 4.03535 88.5352 3.98652 88.6581 3.92196C88.6975 3.89991 88.7371 3.86368 88.7897 3.86053C89.3645 3.82116 89.9392 3.78495 90.514 3.74872C90.6939 3.79125 90.8738 3.8322 91.0537 3.87472C91.1897 3.81488 91.3214 3.75345 91.4574 3.69361C92.3262 3.64794 93.1817 3.57707 94.0593 3.55502C94.1163 3.55345 94.1777 3.58337 94.2391 3.59912C94.6472 3.69834 94.8797 3.69046 95.1386 3.55817C95.2308 3.51093 95.3097 3.46841 95.4501 3.46053C95.8845 3.43218 96.3234 3.41329 96.7533 3.38021C96.9859 3.36289 97.1789 3.37863 97.3456 3.43533C97.4641 3.47628 97.587 3.49361 97.7318 3.48416C98.5303 3.43691 99.3245 3.39124 100.123 3.34084C100.18 3.33769 100.233 3.31091 100.277 3.29201C100.369 3.25107 100.448 3.20698 100.535 3.16446C100.654 3.19123 100.786 3.21171 100.882 3.24635C101.005 3.2873 101.119 3.28729 101.286 3.27627C104.471 3.08571 107.661 2.89988 110.846 2.70775C111.118 2.692 111.237 2.75815 111.421 2.79279C111.483 2.80539 111.544 2.82113 111.61 2.82428C111.68 2.82743 111.755 2.81799 111.825 2.81327C114.216 2.67153 116.607 2.53136 118.999 2.38962C119.315 2.37072 119.315 2.37072 119.784 2.46836C119.841 2.48096 119.916 2.49514 119.977 2.49041C121.065 2.42899 122.153 2.36286 123.237 2.29986C123.378 2.29199 123.496 2.31718 123.623 2.3534C123.873 2.42427 123.891 2.42428 124.075 2.32034C124.163 2.27152 124.255 2.24158 124.4 2.22741C124.558 2.21166 124.685 2.2164 124.808 2.24475C124.983 2.28412 125.111 2.35025 125.378 2.33293C126.537 2.25891 127.699 2.1975 128.853 2.1219C129.117 2.10458 129.257 2.15812 129.433 2.19749C129.494 2.21167 129.551 2.23372 129.617 2.23844C129.683 2.24317 129.762 2.23213 129.832 2.22741C131.28 2.14236 132.732 2.05891 134.176 1.96757C134.448 1.95025 134.566 2.01795 134.75 2.0526C134.812 2.0652 134.882 2.08726 134.939 2.08411C135.808 2.03529 136.681 1.9833 137.55 1.93133C137.861 1.91243 137.861 1.91401 138.335 2.01007C138.392 2.02267 138.467 2.03527 138.528 2.03212C139.542 1.97385 140.56 1.91401 141.573 1.85416C141.885 1.83527 141.885 1.83527 142.784 1.91716C142.85 1.92346 142.92 1.93292 142.986 1.92977C144.144 1.86206 145.307 1.7959 146.465 1.72346C146.698 1.70928 146.891 1.72188 147.058 1.77857C147.176 1.81952 147.299 1.83685 147.444 1.8274C148.747 1.75024 150.054 1.67622 151.353 1.59433C151.603 1.57858 151.766 1.61321 151.941 1.65888C151.998 1.67463 152.055 1.69669 152.121 1.70298C152.187 1.70928 152.261 1.70298 152.332 1.69826C153.635 1.62109 154.942 1.54865 156.241 1.46518C156.504 1.44786 156.645 1.5014 156.82 1.54077C156.882 1.55494 156.947 1.58329 157 1.58172C157.509 1.55494 158.018 1.53133 158.523 1.49196C158.795 1.46991 158.913 1.54234 159.097 1.57699C159.159 1.58801 159.229 1.61165 159.286 1.6085C160.374 1.54708 161.462 1.48251 162.546 1.41637C162.7 1.40692 162.814 1.42108 162.937 1.46203C163.099 1.51715 163.288 1.5392 163.525 1.52187C164.029 1.48565 164.538 1.46046 165.047 1.43054C165.345 1.41321 165.345 1.41322 166.258 1.49511C166.324 1.50141 166.394 1.51085 166.46 1.5077C167.329 1.45731 168.202 1.40849 169.066 1.35337C169.299 1.33762 169.492 1.35179 169.658 1.40849C169.777 1.44943 169.895 1.46677 170.045 1.45732C170.843 1.41007 171.637 1.36282 172.436 1.31558C172.725 1.29825 173.015 1.26832 173.305 1.26832C173.515 1.2699 173.669 1.34549 173.857 1.38328C173.91 1.39431 173.998 1.38172 174.068 1.37857C175.082 1.31873 176.1 1.2636 177.109 1.19588C177.372 1.17856 177.512 1.2321 177.688 1.27147C177.749 1.28565 177.815 1.314 177.868 1.31242C178.232 1.2951 178.592 1.27147 178.956 1.251C179.39 1.2258 179.829 1.2069 180.259 1.17226C180.61 1.14391 180.742 1.28092 181.022 1.28564C181.237 1.29037 181.457 1.2636 181.672 1.251C182.106 1.2258 182.541 1.19746 182.975 1.17541C183.128 1.16754 183.247 1.14233 183.295 1.08563C183.304 1.07461 183.229 1.051 183.181 1.03682C182.598 0.876187 182.598 0.876179 182.01 0.910826C181.645 0.932874 181.286 0.954926 180.922 0.973824C180.86 0.976974 180.79 0.964376 180.729 0.954927C180.553 0.928154 180.571 0.89666 180.72 0.839965C180.869 0.78327 180.983 0.713982 181.11 0.649413C181.29 0.69036 181.466 0.731291 181.646 0.772238C181.79 0.764363 181.935 0.754928 182.08 0.747054C182.804 0.706107 183.528 0.663583 184.252 0.625786C184.304 0.622637 184.37 0.654139 184.432 0.669887C184.607 0.715558 184.765 0.754919 185.02 0.737595C185.669 0.691924 186.323 0.658852 186.972 0.619481C187.257 0.602157 187.257 0.602159 187.758 0.6998C187.815 0.710824 187.889 0.723424 187.951 0.720274C188.604 0.684052 189.254 0.644686 189.907 0.606889C190.048 0.599015 190.184 0.619487 190.285 0.665158C190.324 0.684056 190.315 0.715547 190.482 0.973824C191 1.18328 191.355 1.16124 191.715 1.14234C191.869 1.13447 192.005 1.12659 192.106 1.09509C192.158 1.07777 192.224 1.05257 192.224 1.03209C192.224 1.01634 192.128 0.991142 192.066 0.987992C191.632 0.956495 191.219 1.02265 190.794 1.03682C190.596 1.04312 190.425 0.988001 190.39 0.898234C190.381 0.873036 190.368 0.846265 190.355 0.821067C190.342 0.79587 190.333 0.769099 190.32 0.743901C190.149 0.736027 190.048 0.764369 189.973 0.817915C189.912 0.862011 189.824 0.912406 189.706 0.936029C189.587 0.961227 189.425 0.956511 189.28 0.964385C189.14 0.972259 188.986 0.99273 188.854 0.981706C188.723 0.969107 188.617 0.923429 188.495 0.895081C188.438 0.880907 188.367 0.860442 188.31 0.863592C187.806 0.890364 187.306 0.917127 186.805 0.951774C186.542 0.970672 186.411 0.904538 186.244 0.863592C186.112 0.832095 185.98 0.839959 185.959 0.912402C185.901 1.08564 186.103 1.15808 186.551 1.125C186.919 1.09666 187.253 1.09195 187.543 1.19904C187.582 1.21321 187.674 1.21951 187.731 1.21636C188.091 1.19746 188.446 1.17384 188.806 1.15494C188.872 1.15179 188.942 1.15808 189.004 1.16438C189.899 1.24942 189.899 1.251 190.201 1.2321C190.346 1.22265 190.487 1.21478 190.473 0.975401C190.75 0.718699 191.189 0.701378 191.614 0.663582C191.891 0.639959 192.009 0.709256 192.189 0.745477C192.25 0.758076 192.316 0.783269 192.373 0.78012C193.317 0.728149 194.256 0.673021 195.195 0.614752C195.353 0.605303 195.467 0.614753 195.589 0.6557C195.747 0.70767 195.923 0.740749 196.173 0.721851C196.673 0.684054 197.182 0.660436 197.691 0.628939C197.95 0.613191 197.95 0.613175 198.472 0.710816C198.529 0.72184 198.604 0.734439 198.665 0.73129C199.174 0.704517 199.679 0.671455 200.183 0.643108C200.324 0.635233 200.451 0.657279 200.561 0.6998C200.67 0.742321 200.802 0.764367 200.938 0.756493C201.447 0.728145 201.952 0.696658 202.456 0.668311C202.518 0.665161 202.592 0.676184 202.649 0.687208C203.184 0.78485 203.184 0.784833 203.43 0.769085C203.79 0.745462 204.159 0.73445 204.514 0.702953C204.861 0.671456 205.04 0.76279 205.277 0.813185C205.927 0.776964 206.58 0.747049 207.225 0.702953C207.489 0.684055 207.629 0.73602 207.805 0.776967C207.866 0.79114 207.927 0.821066 207.985 0.819491C208.204 0.813192 208.419 0.795871 208.634 0.783272C208.849 0.770673 209.068 0.758076 209.283 0.745477C209.529 0.791148 209.691 0.898237 210.042 0.862015C210.253 0.839967 210.477 0.835243 210.692 0.822644C210.907 0.810045 211.126 0.797448 211.341 0.784849C211.486 0.776974 211.635 0.772243 211.775 0.758069C212.034 0.734446 212.162 0.811624 212.346 0.846271C212.407 0.857295 212.478 0.876181 212.535 0.873031C212.969 0.850983 213.408 0.832086 213.833 0.795864C214.162 0.767517 214.386 0.814769 214.619 0.880913C214.667 0.895087 214.75 0.90296 214.812 0.89981C215.321 0.873038 215.825 0.839956 216.33 0.811609C216.466 0.803735 216.598 0.828932 216.707 0.869878C216.821 0.912399 216.948 0.932888 217.089 0.925013C217.593 0.896666 218.103 0.86516 218.607 0.836812C218.669 0.833662 218.743 0.846264 218.8 0.858862C219.292 0.956504 219.292 0.95808 219.581 0.939182C219.651 0.934457 219.726 0.931295 219.796 0.926571C220.156 0.904523 220.529 0.896659 220.88 0.858862C221.284 0.816341 221.577 0.869889 221.863 0.959656C222.222 0.940757 222.591 0.929731 222.942 0.898234C223.205 0.874611 223.346 0.934453 223.521 0.973824C223.583 0.987998 223.648 1.01635 223.701 1.0132C224.21 0.986423 224.719 0.962809 225.219 0.923437C225.491 0.901389 225.61 0.972245 225.794 1.00847C225.855 1.02107 225.921 1.04312 225.978 1.03998C226.268 1.02738 226.558 1.00847 226.847 0.991145C227.185 0.970672 227.185 0.972245 227.632 1.06831C227.843 1.11398 228.054 1.07776 228.26 1.06674C228.479 1.05414 228.685 1.04469 228.861 1.10926C228.971 1.15021 229.102 1.1754 229.238 1.16911C229.528 1.15493 229.822 1.14076 230.107 1.11714C230.335 1.09824 230.533 1.11084 230.699 1.16911C230.818 1.21005 230.941 1.23054 231.086 1.22109C231.735 1.18329 232.389 1.14391 233.038 1.10768C233.095 1.10453 233.174 1.11871 233.227 1.13289C233.35 1.16123 233.468 1.19272 233.586 1.22422C233.872 1.21005 234.166 1.20376 234.446 1.18172C234.745 1.15967 235.017 1.15179 235.249 1.23841C235.298 1.25731 235.368 1.28407 235.425 1.28249C235.644 1.27619 235.859 1.26045 236.074 1.24785C236.289 1.23525 236.509 1.22265 236.724 1.21005C236.974 1.24942 237.132 1.36281 237.483 1.32659C237.693 1.30454 237.917 1.29982 238.132 1.28722C238.347 1.27462 238.566 1.26045 238.781 1.24942C238.852 1.24627 238.931 1.2384 238.992 1.2447C239.058 1.25099 239.115 1.27305 239.172 1.2888C239.347 1.33447 239.51 1.38014 239.76 1.35337C239.971 1.33132 240.194 1.3266 240.409 1.31242C240.703 1.2951 240.703 1.2951 241.19 1.39432C241.388 1.43526 241.611 1.38172 241.8 1.41637C241.927 1.43999 242.037 1.47935 242.16 1.50613C242.213 1.51715 242.296 1.52187 242.357 1.51872C242.647 1.50455 242.941 1.49038 243.226 1.46676C243.459 1.44786 243.652 1.46675 243.814 1.52345C243.933 1.56439 244.051 1.58173 244.2 1.57228C244.924 1.52818 245.648 1.49037 246.368 1.44155C246.613 1.42423 246.811 1.45101 246.947 1.5077C247.179 1.60534 247.508 1.49038 247.75 1.56913C247.899 1.61795 248.048 1.67464 248.32 1.65102C248.82 1.61007 249.329 1.58801 249.834 1.55967C250.014 1.60219 250.194 1.64472 250.378 1.68724C250.668 1.66992 250.957 1.65258 251.247 1.63683C251.462 1.62423 251.681 1.61006 251.896 1.59904C251.966 1.59589 252.041 1.58959 252.107 1.59746C252.173 1.60534 252.225 1.62581 252.287 1.64156C252.589 1.71873 252.589 1.72031 253.09 1.68882C253.305 1.67464 253.511 1.66519 253.691 1.72819C253.857 1.78646 254.055 1.79747 254.283 1.78015C254.713 1.74865 255.147 1.72503 255.586 1.70298C255.722 1.69511 255.849 1.72188 255.963 1.76283C256.135 1.8274 256.345 1.8211 256.56 1.80378C256.845 1.78173 257.126 1.75969 257.367 1.84788C257.416 1.86678 257.49 1.89353 257.543 1.89196C257.903 1.87936 258.267 1.86992 258.618 1.84C258.969 1.81007 259.14 1.90771 259.381 1.95496C259.741 1.93448 260.105 1.91401 260.465 1.89354C260.535 1.88881 260.619 1.87465 260.68 1.88252C260.939 1.91559 261.088 2.0337 261.444 1.99748C261.65 1.97701 261.874 1.97072 262.089 1.96599C262.146 1.96442 262.22 1.99118 262.26 2.01165C262.282 2.02267 262.26 2.05259 262.233 2.06834C262.154 2.11244 262.058 2.1534 261.988 2.19907C261.979 2.20537 262.062 2.2337 262.111 2.2463C262.229 2.27465 262.365 2.26994 262.523 2.25734C262.659 2.24631 262.799 2.26836 262.896 2.31561C262.935 2.33451 262.922 2.366 262.839 2.46994C262.839 2.54711 262.931 2.51245 262.962 2.46206C263.01 2.38961 262.918 2.36599 262.742 2.40537C262.62 2.43371 262.558 2.47466 262.589 2.50774C262.606 2.52506 262.69 2.54711 262.839 2.46994C263.225 2.37545 263.515 2.35813 263.804 2.34081C263.879 2.33609 263.967 2.32033 264.019 2.32978C264.208 2.36757 264.383 2.41325 264.568 2.45577C264.778 2.44632 264.976 2.42269 265.182 2.48411C265.472 2.57073 265.485 2.56285 265.766 2.54553C265.91 2.53608 266.055 2.52822 266.2 2.52035C266.345 2.51247 266.459 2.53609 266.586 2.57231C266.845 2.64633 266.867 2.64632 267.038 2.54553C267.139 2.48411 267.209 2.46364 267.336 2.49199C267.757 2.58806 267.762 2.59435 268.122 2.566C268.42 2.54238 268.701 2.53608 268.92 2.62585C269.069 2.68884 269.118 2.67467 269.236 2.60853C269.552 2.43372 269.697 2.43686 270.289 2.56285C270.566 2.6227 270.851 2.55813 271.132 2.55026C271.369 2.54396 271.535 2.58175 271.553 2.68097C271.566 2.74239 271.605 2.78649 271.763 2.80696C271.825 2.81484 271.899 2.82586 271.961 2.82271C272.325 2.80381 272.685 2.78176 273.049 2.75971C273.233 2.74868 273.334 2.67468 273.299 2.57704C273.26 2.4731 273.33 2.43529 273.593 2.40537C273.751 2.38804 273.878 2.39121 274.006 2.41955C274.146 2.45105 274.106 2.4794 273.984 2.53609C273.69 2.67468 273.725 2.75971 274.102 2.85577C274.234 2.88884 274.339 2.91878 274.37 2.9676C274.387 2.9928 274.37 3.02587 274.409 3.04477C274.624 3.15028 274.922 3.21801 275.256 3.2684C275.576 3.22588 275.796 3.29674 276.041 3.35343C276.234 3.39753 276.463 3.35974 276.669 3.34399C276.901 3.32667 277.094 3.33926 277.261 3.39753C277.38 3.43848 277.502 3.45737 277.647 3.4495C277.937 3.43217 278.231 3.42116 278.516 3.39596C278.762 3.37391 278.946 3.40541 279.1 3.45896C279.293 3.52667 279.508 3.481 279.709 3.49045C279.982 3.50147 280.118 3.64163 280.473 3.60383C280.684 3.58178 280.903 3.57391 281.122 3.56761C281.179 3.56604 281.249 3.59281 281.298 3.61171C281.53 3.69833 281.802 3.6936 282.101 3.66841C282.307 3.65108 282.509 3.63534 282.711 3.69518C283.044 3.79598 283.413 3.88417 283.764 3.97709C283.812 4.04953 283.777 4.13456 284.027 4.17708C284.158 4.19913 284.281 4.23221 284.382 4.26844C284.505 4.31096 284.619 4.32198 284.777 4.31096C285.062 4.28891 285.361 4.28417 285.642 4.25582C285.9 4.23063 286.063 4.28261 286.221 4.33143C286.348 4.37081 286.466 4.38969 286.62 4.36135C286.778 4.33457 286.892 4.35189 287.019 4.39441C287.199 4.45268 287.212 4.44639 287.809 4.46372C287.87 4.46529 287.945 4.4889 287.98 4.50937C287.998 4.5204 287.958 4.55191 287.928 4.56766C287.888 4.58656 287.827 4.6086 287.77 4.61332C287.12 4.65427 286.466 4.69049 285.817 4.73144C285.751 4.73616 285.681 4.7472 285.633 4.76294C285.58 4.78027 285.514 4.80387 285.514 4.82592C285.514 4.84167 285.602 4.86058 285.663 4.8716C285.857 4.90782 286.085 4.8527 286.273 4.89365C286.401 4.92042 286.506 4.95821 286.633 4.98341C286.686 4.99443 286.769 4.99286 286.835 4.98971C287.054 4.97869 287.269 4.96294 287.489 4.9535C287.55 4.95192 287.62 4.96768 287.677 4.98028C288.099 5.07477 288.099 5.07476 288.463 5.05429C288.608 5.04641 288.761 5.02279 288.897 5.03224C289.029 5.04169 289.143 5.08421 289.261 5.11098C289.507 5.16768 289.74 5.2228 289.757 5.34563C289.766 5.39288 289.911 5.43382 290.055 5.43697C290.196 5.44012 290.345 5.42281 290.49 5.41336C290.832 5.39446 290.832 5.39446 291.275 5.49053C291.398 5.5173 291.53 5.52044 291.688 5.5047C291.749 5.4984 291.824 5.5047 291.89 5.51258C292.105 5.5362 292.105 5.56612 291.964 5.62281C291.767 5.70628 291.784 5.71416 292.337 5.78503C292.548 5.8118 292.71 5.8622 292.885 5.90629C293.171 5.97716 293.166 5.97715 292.978 6.07007C292.934 6.09054 292.894 6.11259 292.85 6.13464C292.723 6.19606 292.622 6.2622 292.359 6.2685C292.069 6.2748 291.78 6.30001 291.49 6.31733C291.209 6.33465 291.135 6.37243 291.161 6.47952C291.192 6.60866 291.249 6.62284 291.754 6.62127C291.898 6.62127 292.026 6.63386 292.135 6.67638C292.083 6.72678 291.986 6.76615 291.846 6.7756C291.486 6.79922 291.122 6.8197 290.762 6.84017C290.472 6.8575 290.183 6.87481 289.893 6.89214C289.713 6.90316 289.599 6.98506 289.647 7.0764C289.674 7.12837 289.696 7.18034 289.718 7.23231C289.766 7.33625 289.858 7.36303 290.152 7.35831C290.227 7.35673 290.297 7.34412 290.367 7.34727C290.652 7.3583 290.788 7.48901 291.13 7.46223C291.416 7.44019 291.714 7.43547 291.995 7.40712C292.254 7.38192 292.398 7.43863 292.578 7.48115C292.64 7.49533 292.706 7.52523 292.758 7.52366C293.123 7.50633 293.487 7.48902 293.842 7.4591C294.009 7.4465 294.11 7.45595 294.241 7.49374C294.557 7.58509 294.566 7.58036 295.035 7.55201C295.378 7.52996 295.382 7.53311 295.821 7.62918C295.944 7.65595 296.075 7.65595 296.233 7.64335C296.44 7.6276 296.655 7.6024 296.87 7.62603C296.935 7.63233 297.019 7.65123 297.041 7.6717C297.054 7.68588 296.992 7.72052 296.94 7.73155C296.554 7.81344 296.102 7.79927 295.68 7.83234C295.549 7.84179 295.417 7.81187 295.307 7.76934C295.193 7.72682 295.071 7.70951 294.921 7.71738C294.632 7.7347 294.338 7.74572 294.053 7.77092C293.807 7.79297 293.636 7.75674 293.465 7.70792C293.408 7.69217 293.342 7.66225 293.285 7.66382C292.635 7.69532 291.982 7.72682 291.337 7.77092C291.078 7.78982 290.929 7.73943 290.753 7.69691C290.692 7.68273 290.63 7.65281 290.573 7.65438C290.354 7.66068 290.139 7.678 289.92 7.6906C289.121 7.73785 288.327 7.78509 287.528 7.82919C287.476 7.83234 287.41 7.79926 287.348 7.78509C287.23 7.75674 287.107 7.72997 286.984 7.70319C286.765 7.71579 286.55 7.73154 286.33 7.74099C286.172 7.74729 286.032 7.76934 286.01 7.82919C285.997 7.86856 286.142 7.90478 286.295 7.90163C286.445 7.89848 286.594 7.87958 286.717 7.90005C287.326 8.00084 287.326 8.00242 287.708 7.98195C288.042 7.96305 288.006 7.94729 288.3 8.03391C288.428 8.07171 288.542 8.09376 288.687 8.08432C289.046 8.06227 289.411 8.04022 289.775 8.02132C289.832 8.01817 289.906 8.03392 289.963 8.04652C290.393 8.14101 290.393 8.14416 290.749 8.12053C291.214 8.09219 291.231 8.08431 291.543 8.18038C291.758 8.24652 291.955 8.20085 292.162 8.1977C292.398 8.25912 292.657 8.31425 292.872 8.38354C293.127 8.46544 293.395 8.45125 293.684 8.42762C293.899 8.4103 294.11 8.404 294.285 8.46857C294.452 8.52842 294.654 8.53473 294.882 8.51898C295.088 8.5048 295.299 8.47487 295.514 8.50952C295.571 8.51897 295.659 8.5426 295.654 8.55677C295.65 8.57882 295.593 8.61032 295.536 8.61977C295.132 8.68434 294.689 8.68276 294.263 8.71268C294.206 8.71741 294.132 8.70008 294.075 8.68748C293.952 8.65913 293.833 8.62607 293.715 8.59615C293.5 8.60559 293.28 8.60874 293.07 8.62763C292.908 8.64181 292.785 8.64025 292.666 8.60245C292.556 8.5678 292.438 8.52527 292.306 8.51425C292.175 8.50323 292.021 8.52685 291.876 8.5363C291.732 8.54575 291.565 8.54101 291.451 8.56621C291.337 8.59141 291.267 8.64654 291.192 8.69063C291.109 8.73945 290.994 8.75521 290.828 8.75994C290.674 8.76466 290.551 8.75836 290.437 8.71426C290.389 8.69536 290.323 8.68118 290.257 8.66858C290.196 8.65756 290.126 8.64023 290.069 8.64338C289.415 8.6796 288.766 8.71899 288.112 8.75678C287.787 8.77568 287.791 8.77567 287.116 8.68275C287.054 8.67488 286.98 8.66386 286.918 8.66701C286.554 8.6859 286.194 8.70796 285.83 8.73C285.462 8.75205 285.466 8.7489 284.839 8.64968C284.725 8.63079 284.558 8.65599 284.422 8.65284C284.137 8.64496 283.996 8.51268 283.663 8.53788C283.378 8.55992 283.079 8.56464 282.794 8.59299C282.535 8.61819 282.386 8.56308 282.21 8.52056C282.149 8.50638 282.083 8.47488 282.03 8.47803C281.377 8.51268 280.727 8.55205 279.859 8.55677C279.644 8.55677 279.74 8.58985 279.881 8.60087C280.082 8.6182 280.148 8.58513 280.039 8.52213C279.96 8.47803 279.845 8.45597 279.753 8.467C279.705 8.4733 279.644 8.50323 279.859 8.55677C280.087 8.61662 280.074 8.64968 280.113 8.66858C280.21 8.71425 280.346 8.73315 280.486 8.72685C280.705 8.71583 280.92 8.70008 281.14 8.69063C281.201 8.68748 281.276 8.69851 281.333 8.71111C281.816 8.80875 281.82 8.81505 282.333 8.77726C282.496 8.76623 282.614 8.76623 282.741 8.79615C282.917 8.8371 283.044 8.90639 283.312 8.88434C283.667 8.85441 284.031 8.83711 284.395 8.81978C284.452 8.81663 284.514 8.84498 284.58 8.85758C284.76 8.89537 284.891 8.96624 285.159 8.93632C285.365 8.9127 285.589 8.90638 285.808 8.90166C285.865 8.90008 285.953 8.92529 285.979 8.94576C286.032 8.98198 285.966 9.02451 285.817 9.05443C285.756 9.06703 285.672 9.06388 285.602 9.0686C285.312 9.08593 285.023 9.10482 284.733 9.11899C284.58 9.12686 284.435 9.1505 284.417 9.20877C284.404 9.24814 284.562 9.28278 284.711 9.27963C284.931 9.2749 285.15 9.26231 285.361 9.24183C285.734 9.20719 286.058 9.21663 286.361 9.31585C286.576 9.38514 286.563 9.35996 286.791 9.56469C286.848 9.61666 287.019 9.62138 287.168 9.61823C287.528 9.61035 287.695 9.63398 287.664 9.6828C287.625 9.74265 287.497 9.76153 287.335 9.76941C287.046 9.78201 286.756 9.80249 286.466 9.81981C286.396 9.82454 286.317 9.83398 286.251 9.83083C286.186 9.82768 286.124 9.80878 286.067 9.79461C285.944 9.76469 285.839 9.71901 285.707 9.70798C285.576 9.69696 285.422 9.72059 285.277 9.73004C285.133 9.73791 284.979 9.76153 284.847 9.75051C284.716 9.73949 284.606 9.69225 284.488 9.6639C284.431 9.64973 284.36 9.62767 284.303 9.62924C284.014 9.64184 283.724 9.66232 283.435 9.67807C283.079 9.69855 283.079 9.69855 282.649 9.60091C282.526 9.57256 282.399 9.57414 282.237 9.58674C281.886 9.61193 281.881 9.6072 281.241 9.51586C281.179 9.50641 281.105 9.49539 281.043 9.50011C280.389 9.53633 279.74 9.5757 279.091 9.6135C278.534 9.64657 278.534 9.64658 278.226 9.80407C277.998 9.92061 277.994 9.9206 278.218 9.97415C278.398 10.0182 278.56 10.0828 278.757 10.1064C278.942 10.1285 279.17 10.0576 279.372 10.1301C279.473 10.1663 279.604 10.2057 279.731 10.212C279.933 10.2198 280.148 10.1741 280.341 10.2434C280.438 10.2781 280.583 10.3143 280.705 10.3159C280.92 10.319 281.14 10.2938 281.355 10.2828C281.421 10.2797 281.495 10.2797 281.557 10.2875C281.622 10.297 281.679 10.3159 281.737 10.3316C281.912 10.3852 282.101 10.4104 282.329 10.3836C282.702 10.3395 283.035 10.3616 283.325 10.4623C283.364 10.4765 283.461 10.4781 283.522 10.4718C283.68 10.4561 283.816 10.4545 283.935 10.4844C283.983 10.497 284.053 10.519 284.044 10.5332C284.031 10.5568 283.979 10.5883 283.922 10.5962C283.509 10.6498 283.066 10.6561 282.64 10.6844C282.583 10.6876 282.513 10.6671 282.456 10.6529C282.333 10.6246 282.228 10.5773 282.096 10.5663C281.965 10.5553 281.811 10.5757 281.666 10.5836C281.522 10.5915 281.368 10.6151 281.236 10.6057C281.105 10.5946 280.982 10.5553 280.877 10.5206C280.754 10.4812 280.635 10.4765 280.473 10.4923C280.262 10.5128 280.043 10.5159 279.828 10.5269C279.709 10.497 279.591 10.4639 279.468 10.4356C279.411 10.4214 279.341 10.4041 279.28 10.4057C278.99 10.4183 278.7 10.4371 278.411 10.4545C278.121 10.4718 278.121 10.4718 277.63 10.3742C277.573 10.3631 277.498 10.3505 277.437 10.3537C277.072 10.3726 276.713 10.3962 276.348 10.4151C276.208 10.423 276.081 10.4009 275.967 10.3584C275.857 10.3159 275.725 10.2923 275.589 10.3001C275.01 10.3332 274.431 10.3647 273.852 10.4041C273.619 10.4198 273.422 10.4057 273.264 10.349C273.08 10.2844 272.874 10.3001 272.659 10.3127C272.171 10.3442 272.167 10.3427 271.856 10.2623C271.794 10.2466 271.733 10.2167 271.676 10.2182C271.171 10.2419 270.662 10.2639 270.162 10.3017C269.899 10.3222 269.758 10.2671 269.583 10.2261C269.521 10.2119 269.456 10.182 269.403 10.1852C269.039 10.2025 268.674 10.2182 268.319 10.2497C267.964 10.2812 267.828 10.1348 267.56 10.1364C267.196 10.1379 266.836 10.1742 266.476 10.1962C266.187 10.2135 265.897 10.2308 265.608 10.2482C265.318 10.2655 265.028 10.2797 264.739 10.3001C264.585 10.3112 264.471 10.297 264.344 10.2576C264.182 10.2056 263.989 10.1647 263.813 10.1175C263.545 10.0497 263.545 10.0497 263.221 10.0686C263.15 10.0734 263.076 10.0765 263.006 10.0812C262.475 10.1159 262.475 10.1127 261.799 10.0135C261.768 10.0088 261.689 10.0261 261.659 10.0387C261.566 10.0797 261.483 10.1238 261.4 10.1663C261.281 10.1411 261.137 10.1269 261.058 10.0907C260.834 9.98832 260.483 10.1285 260.255 10.0277C260.171 9.98989 260.026 9.95682 259.895 9.94737C259.759 9.93792 259.605 9.95997 259.465 9.96942C259.101 9.99304 259.101 9.99147 258.789 10.1316C258.631 10.2009 258.403 10.1883 258.197 10.2041C257.982 10.2214 257.776 10.2308 257.596 10.1663C257.433 10.108 257.236 10.0938 257.003 10.1127C256.718 10.1364 256.424 10.1505 256.135 10.1647C256.073 10.1678 255.999 10.16 255.937 10.1505C255.266 10.0576 255.266 10.056 254.941 10.0765C254.796 10.086 254.647 10.0891 254.507 10.1033C254.27 10.1285 254.09 10.0954 253.919 10.045C253.862 10.0293 253.796 9.99935 253.739 10.0009C253.449 10.0088 253.164 10.023 252.879 10.0371C252.66 10.0482 252.44 10.0545 252.23 10.0765C251.879 10.1127 251.707 10.0104 251.466 9.96311C251.106 9.98358 250.742 9.99776 250.382 10.0261C250.216 10.0387 250.106 10.034 249.979 9.9962C249.816 9.94895 249.667 9.89541 249.404 9.91903C249.053 9.95053 248.684 9.96155 248.325 9.98045C248.083 9.93163 247.908 9.8324 247.561 9.86862C247.351 9.89067 247.127 9.8954 246.912 9.908C246.622 9.92532 246.333 9.94108 246.043 9.95998C245.732 9.97888 245.736 9.97415 245.258 9.88124C244.981 9.82611 244.696 9.88753 244.415 9.89698C244.196 9.90485 244.086 9.97729 244.139 10.0702C244.191 10.1631 244.073 10.2356 243.871 10.2482C243.367 10.2781 242.858 10.3096 242.353 10.3364C242.292 10.3395 242.217 10.3285 242.16 10.3175C241.62 10.2182 241.62 10.2198 241.379 10.234C241.019 10.2576 240.651 10.2702 240.295 10.3001C240.049 10.3206 239.87 10.2875 239.712 10.234C239.589 10.1931 239.475 10.1836 239.317 10.1931C237.579 10.2986 235.842 10.3962 234.109 10.5049C233.85 10.5206 233.701 10.475 233.525 10.4324C233.464 10.4183 233.407 10.3883 233.345 10.3883C233.2 10.3883 233.056 10.4025 232.911 10.412C232.261 10.4498 231.612 10.4954 230.958 10.5238C230.682 10.5364 230.607 10.6088 230.489 10.6687C230.397 10.7143 230.291 10.7332 230.129 10.7395C229.971 10.7458 229.857 10.7379 229.734 10.697C229.576 10.6435 229.396 10.6104 229.151 10.6324C228.865 10.6576 228.576 10.6687 228.282 10.686C228.133 10.6939 228.019 10.7222 227.97 10.7789C227.961 10.7883 228.054 10.812 228.106 10.8261C228.282 10.8734 228.449 10.9285 228.646 10.9616C228.848 10.9947 229.067 10.9568 229.278 10.9474C229.352 10.9442 229.423 10.9348 229.493 10.9364C229.559 10.938 229.638 10.9458 229.686 10.96C229.914 11.0309 230.155 11.0797 230.471 11.0372C230.743 11.0576 230.884 11.1884 231.23 11.1537C231.441 11.1332 231.66 11.1238 231.88 11.1159C231.937 11.1143 231.998 11.1427 232.06 11.1569C232.235 11.1962 232.376 11.2592 232.639 11.2325C232.92 11.2041 233.218 11.1994 233.503 11.1773C233.661 11.1647 233.775 11.1758 233.898 11.2167C234.056 11.2687 234.236 11.308 234.482 11.2828C234.692 11.2608 234.916 11.2561 235.131 11.2419C235.412 11.2246 235.412 11.2262 235.912 11.3238C235.969 11.3348 236.044 11.3474 236.105 11.3443C236.469 11.3254 236.829 11.3017 237.193 11.2828C237.334 11.275 237.47 11.2954 237.566 11.3411C237.606 11.36 237.592 11.3915 237.606 11.4183C236.882 11.4608 236.158 11.497 235.438 11.549C235.166 11.5695 235.043 11.5049 234.863 11.4687C234.802 11.4561 234.736 11.4293 234.679 11.4325C234.17 11.4592 233.665 11.4876 233.161 11.5222C233.003 11.5332 232.885 11.5269 232.766 11.4813C232.463 11.36 232.095 11.4262 231.752 11.4435C231.489 11.4561 231.406 11.5049 231.437 11.6089C231.476 11.7317 231.634 11.7695 232.038 11.7474C232.182 11.7396 232.327 11.7285 232.472 11.7222C232.612 11.7159 232.74 11.7364 232.854 11.7789C232.963 11.8214 233.095 11.8435 233.231 11.8372C233.521 11.823 233.815 11.8089 234.095 11.7852C234.328 11.7663 234.521 11.7821 234.683 11.8404C234.863 11.9049 235.074 11.8907 235.285 11.8766C235.776 11.8451 235.78 11.8467 236.087 11.9254C236.149 11.9411 236.21 11.9711 236.267 11.9695C236.772 11.9459 237.281 11.9254 237.777 11.8876C238.036 11.8687 238.185 11.9191 238.356 11.96C238.417 11.9742 238.479 12.0057 238.536 12.0026C238.9 11.9852 239.264 11.9679 239.619 11.938C239.786 11.9238 239.887 11.9333 240.023 11.9711C240.348 12.064 240.357 12.0608 240.817 12.0309C240.958 12.0215 241.111 12.0041 241.243 12.0167C241.375 12.0293 241.48 12.075 241.603 12.1034C241.66 12.116 241.73 12.1333 241.791 12.1301C242.081 12.1175 242.371 12.0986 242.66 12.0813C242.932 12.064 242.932 12.0656 243.441 12.1632C243.647 12.2042 243.862 12.1695 244.069 12.1569C244.292 12.1427 244.494 12.1427 244.665 12.2042C244.836 12.2656 245.043 12.2624 245.262 12.2498C245.468 12.2372 245.679 12.2026 245.889 12.2451C246.372 12.3427 246.372 12.3443 246.67 12.3254C247.105 12.2986 247.535 12.2734 247.974 12.2498C248.031 12.2467 248.105 12.2656 248.162 12.2782C248.285 12.3065 248.39 12.3537 248.522 12.3648C248.654 12.3774 248.807 12.3585 248.948 12.349C249.4 12.3191 249.43 12.3081 249.733 12.412C249.988 12.4971 250.303 12.3742 250.54 12.4719C250.676 12.527 250.861 12.5711 251.115 12.5443C251.326 12.5223 251.545 12.516 251.764 12.5034C252.111 12.4829 252.111 12.4845 252.55 12.579C252.607 12.5916 252.681 12.6073 252.739 12.6042C253.028 12.5916 253.322 12.5805 253.603 12.5522C253.932 12.5191 254.143 12.579 254.388 12.6372C254.581 12.6829 254.81 12.6451 255.016 12.6294C255.24 12.6136 255.441 12.6183 255.608 12.6797C255.784 12.7427 255.99 12.7349 256.209 12.7223C256.415 12.7112 256.626 12.675 256.837 12.7191C257.289 12.8168 257.289 12.8168 257.618 12.7979C257.907 12.7805 258.197 12.7616 258.486 12.749C258.543 12.7459 258.614 12.7664 258.671 12.7805C258.793 12.8089 258.899 12.8561 259.03 12.8672C259.162 12.8782 259.316 12.8577 259.46 12.8498C259.605 12.842 259.759 12.8183 259.89 12.8278C260.022 12.8372 260.145 12.8766 260.25 12.9113C260.373 12.9522 260.487 12.9569 260.654 12.9412C260.864 12.9207 261.084 12.916 261.299 12.905C261.417 12.9349 261.54 12.9648 261.654 12.9979C261.773 13.0325 261.9 13.0294 262.062 13.0183C262.602 12.9805 262.606 12.9853 263.058 13.0829C263.264 13.127 263.48 13.0908 263.686 13.0798C263.905 13.0672 264.111 13.0609 264.282 13.1239C264.449 13.1837 264.655 13.1916 264.875 13.1727C265.015 13.1601 265.164 13.1522 265.309 13.1475C265.375 13.1459 265.454 13.1522 265.502 13.1648C265.735 13.231 265.963 13.2908 266.283 13.2483C266.564 13.2609 266.704 13.39 267.042 13.3648C267.327 13.3428 267.626 13.338 267.907 13.3097C268.166 13.2845 268.35 13.3286 268.481 13.3837C268.718 13.4814 269.052 13.3491 269.289 13.4451C269.425 13.5003 269.6 13.5444 269.864 13.5207C270.153 13.4955 270.245 13.5286 270.329 13.6278C270.377 13.6845 270.368 13.7302 270.28 13.7743C270.193 13.82 270.096 13.8121 269.956 13.7601C269.793 13.7018 269.6 13.6908 269.368 13.7034C269.14 13.716 268.999 13.6341 268.811 13.6026C268.622 13.5696 268.398 13.6247 268.201 13.5822C267.736 13.4829 267.736 13.4829 267.42 13.5018C267.205 13.5144 266.981 13.5207 266.77 13.5428C266.52 13.5696 266.358 13.5207 266.187 13.4766C266.125 13.4609 266.064 13.431 266.011 13.4325C265.507 13.4562 264.998 13.4782 264.497 13.5176C264.234 13.5381 264.094 13.4814 263.918 13.442C263.857 13.4278 263.791 13.3995 263.738 13.4026C263.304 13.4247 262.874 13.453 262.44 13.4798C262.356 13.5223 262.264 13.5632 262.185 13.6089C262.102 13.6562 261.988 13.6766 261.821 13.6751C261.545 13.6751 261.273 13.7412 260.996 13.6577C260.711 13.5727 260.689 13.5774 260.413 13.5979C260.062 13.6247 259.689 13.6184 259.359 13.6798C259.302 13.6908 259.241 13.7207 259.241 13.7428C259.237 13.7569 259.329 13.7774 259.386 13.79C259.579 13.8278 259.803 13.7727 259.996 13.8121C260.123 13.8373 260.228 13.8751 260.356 13.9018C260.408 13.9129 260.487 13.9113 260.557 13.9097C260.632 13.9081 260.702 13.8971 260.772 13.8987C260.838 13.9003 260.908 13.9097 260.961 13.9239C261.202 13.9837 261.457 14.0389 261.672 14.1097C261.882 14.179 262.08 14.1318 262.29 14.1286C263.133 14.2389 263.133 14.2404 263.699 14.2058C263.839 14.1979 263.984 14.1885 264.129 14.19C264.19 14.19 264.247 14.2184 264.309 14.2341C264.484 14.2814 264.651 14.3239 264.897 14.2987C265.107 14.2767 265.331 14.2719 265.546 14.2578C265.836 14.2404 265.836 14.2404 266.327 14.3397C266.45 14.3648 266.582 14.3617 266.74 14.3491C266.876 14.3381 267.016 14.3617 267.112 14.4074C267.152 14.4263 267.139 14.4578 267.152 14.4845C266.718 14.5097 266.279 14.5271 265.858 14.5649C265.586 14.5885 265.463 14.5208 265.283 14.4845C265.221 14.4719 265.156 14.4452 265.099 14.4483C264.669 14.4719 264.239 14.4987 263.809 14.5302C263.756 14.5334 263.69 14.5696 263.686 14.5916C263.677 14.6326 263.787 14.6719 263.945 14.6704C264.155 14.6688 264.361 14.642 264.55 14.7066C264.708 14.7633 264.905 14.7885 265.138 14.7633C265.278 14.7491 265.428 14.7491 265.568 14.7365C265.941 14.6987 266.279 14.7066 266.56 14.8137C266.775 14.842 266.985 14.8153 267.191 14.8011C267.345 14.7901 267.494 14.779 267.604 14.809C267.836 14.8719 268.065 14.9349 268.385 14.8924C268.732 14.9365 268.995 15.0294 269.284 15.105C269.42 15.1413 269.526 15.1617 269.684 15.1381C269.749 15.1287 269.828 15.1287 269.899 15.1239C270.043 15.1161 270.197 15.0924 270.329 15.1019C270.46 15.1129 270.57 15.1586 270.688 15.1869C270.745 15.2011 270.811 15.2247 270.868 15.2231C271.088 15.2153 271.303 15.1995 271.518 15.1869C271.733 15.1759 271.948 15.1649 272.163 15.1539C272.343 15.1948 272.527 15.2358 272.707 15.2767C272.996 15.2594 273.286 15.242 273.571 15.2263C273.891 15.2074 273.891 15.209 274.352 15.3066C274.558 15.3507 274.778 15.3224 274.975 15.3019C275.304 15.2688 275.524 15.3287 275.756 15.3917C275.804 15.4043 275.892 15.4121 275.949 15.4058C276.177 15.3838 276.375 15.4011 276.542 15.4594C276.66 15.5003 276.778 15.5192 276.923 15.5114C277.428 15.4814 277.932 15.4499 278.437 15.4232C278.498 15.42 278.569 15.4342 278.626 15.4468C279.073 15.5428 279.078 15.5476 279.407 15.5224C279.701 15.5003 279.973 15.4909 280.205 15.5775C280.254 15.5964 280.328 15.6232 280.381 15.6216C280.74 15.6058 281.105 15.5885 281.46 15.5617C281.622 15.5491 281.737 15.5539 281.864 15.5901C282.026 15.6358 282.171 15.6909 282.439 15.6704C283.18 15.6121 283.184 15.6216 284.062 15.7302C284.123 15.7381 284.207 15.7255 284.277 15.7192C284.426 15.7035 284.536 15.7255 284.667 15.7618C284.961 15.8436 284.97 15.8389 285.251 15.8216C285.466 15.8074 285.69 15.8043 285.9 15.7807C286.225 15.746 286.44 15.8074 286.681 15.8657C286.874 15.9114 287.098 15.8736 287.304 15.8594C287.528 15.8436 287.73 15.8484 287.897 15.9082C288.011 15.9492 288.134 15.9712 288.278 15.9633C288.783 15.935 289.288 15.9035 289.792 15.8751C289.854 15.872 289.928 15.8846 289.985 15.8956C290.486 15.9933 290.486 15.998 290.981 15.9618C291.139 15.9507 291.271 15.9476 291.389 15.9807C291.503 16.0122 291.626 16.0421 291.745 16.072C291.96 16.061 292.179 16.0578 292.39 16.0389C292.552 16.0248 292.666 16.0311 292.793 16.0641C292.96 16.1067 293.101 16.1807 293.364 16.1444C293.5 16.1271 293.658 16.1318 293.794 16.1161C293.956 16.0956 294.066 16.1082 294.193 16.1492C294.351 16.198 294.513 16.2484 294.768 16.2232C295.049 16.1948 295.347 16.1901 295.632 16.1681C295.79 16.1555 295.9 16.1681 296.027 16.209C296.185 16.261 296.365 16.2941 296.611 16.2736C297.111 16.2342 297.115 16.2421 297.602 16.3413C297.725 16.3665 297.857 16.3633 298.015 16.3507C298.151 16.3397 298.291 16.3633 298.388 16.409C298.48 16.4594 298.471 16.4909 298.48 16.5177ZM259.381 2.31403C259.237 2.3219 259.092 2.33135 258.881 2.19434C258.868 2.17072 258.877 2.14238 258.846 2.1219C258.776 2.07938 258.666 2.04946 258.535 2.04474C258.298 2.03844 258.012 2.09197 258.017 2.13292C258.021 2.16756 258.096 2.19748 258.241 2.22583C258.302 2.23685 258.35 2.25575 258.407 2.26835C258.574 2.30458 258.706 2.37546 258.947 2.33923C258.903 2.24159 258.925 2.29041 258.947 2.33923C258.925 2.39908 258.991 2.4416 259.149 2.45892C259.193 2.46365 259.259 2.46049 259.294 2.45104C259.43 2.4164 259.452 2.36916 259.351 2.24475C259.333 2.26522 259.346 2.30143 259.386 2.31088C259.425 2.32033 259.522 2.31246 259.57 2.30144C259.693 2.27152 259.754 2.23214 259.724 2.19907C259.706 2.18175 259.623 2.1597 259.57 2.1597C259.478 2.1597 259.395 2.19434 259.381 2.31403ZM294.86 20.5777C294.54 20.6076 294.171 20.5966 293.851 20.658C293.794 20.669 293.737 20.6974 293.732 20.7194C293.728 20.7336 293.816 20.7541 293.868 20.7651C293.987 20.7903 294.118 20.7824 294.272 20.7745C294.505 20.7635 294.641 20.8359 294.821 20.8722C294.878 20.8832 294.952 20.8911 295.014 20.8879C295.369 20.869 295.72 20.8486 296.075 20.8265C296.137 20.8218 296.203 20.8107 296.255 20.7966C296.431 20.7509 296.413 20.721 296.242 20.6863C296.053 20.6485 295.904 20.5855 295.711 20.5556C295.435 20.5131 295.154 20.5698 294.86 20.5777ZM269.943 21.7273C269.728 21.7399 269.517 21.7525 269.302 21.7651C269.232 21.7698 269.157 21.7714 269.091 21.7777C268.955 21.7887 268.854 21.8218 268.789 21.8738C268.889 21.9147 269.012 21.9383 269.148 21.9336C269.363 21.9242 269.574 21.9037 269.789 21.899C270.022 21.8927 270.158 21.9635 270.337 21.9998C270.394 22.0108 270.465 22.0124 270.53 22.0139C270.855 22.0202 271.053 21.9383 270.991 21.8234C270.947 21.7336 270.781 21.6801 270.579 21.6911C270.368 21.7021 270.153 21.7147 269.943 21.7273ZM296.361 18.25C296.413 18.2232 296.47 18.2044 296.497 18.1807C296.576 18.1004 296.545 18.0406 296.4 17.9776C296.224 17.9004 296.01 17.9524 295.812 17.9602C295.764 17.9618 295.711 17.9949 295.685 18.0154C295.667 18.0295 295.667 18.0595 295.694 18.0673C295.909 18.1303 296.137 18.1886 296.361 18.25ZM258.298 13.5979C258.087 13.6105 257.872 13.6199 257.662 13.6373C257.609 13.642 257.561 13.6719 257.53 13.6924C257.473 13.7302 257.534 13.7821 257.714 13.7869C257.92 13.7932 258.135 13.7664 258.35 13.7538C258.622 13.7381 258.785 13.6798 258.684 13.6294C258.587 13.5806 258.456 13.5711 258.298 13.5979ZM27.3363 10.2324C27.4767 10.2246 27.6215 10.2182 27.7619 10.2072C27.8935 10.1962 27.9945 10.1616 28.0603 10.1096C27.9506 10.0686 27.8277 10.0466 27.6917 10.0513C27.4767 10.0608 27.2661 10.0734 27.0555 10.0891C26.9239 10.0986 26.7967 10.1332 26.766 10.1867C26.7353 10.2277 27.0291 10.2513 27.3363 10.2324ZM239.742 9.98989C239.799 10.0041 239.856 10.0324 239.913 10.0324C240.054 10.0324 240.199 10.023 240.33 10.0072C240.387 10.0009 240.431 9.97257 240.457 9.95052C240.475 9.93635 240.471 9.91115 240.444 9.89856C240.317 9.82296 239.808 9.84973 239.725 9.93635C239.716 9.9521 239.738 9.97257 239.742 9.98989ZM225.899 1.36596C225.912 1.39116 225.917 1.41635 225.934 1.44155C225.97 1.4888 226.066 1.52345 226.206 1.54708C226.316 1.5077 226.373 1.46361 226.369 1.41637C226.364 1.39117 226.351 1.36596 226.334 1.34076C226.299 1.29351 226.202 1.25888 226.062 1.23526C225.952 1.27305 225.899 1.31714 225.899 1.36596ZM306.5 22.0013C306.461 22.0218 306.421 22.0423 306.378 22.0612C306.496 22.1069 306.606 22.121 306.689 22.0958C306.742 22.0801 306.772 22.0565 306.812 22.036C306.694 21.9903 306.588 21.9777 306.5 22.0013ZM303.771 22.2155C303.828 22.2297 303.881 22.2486 303.942 22.258C304.043 22.2738 304.135 22.247 304.206 22.1903C304.149 22.1761 304.096 22.1572 304.035 22.1478C303.934 22.132 303.841 22.1588 303.771 22.2155ZM305.5 21.9273C305.469 21.9651 305.531 21.9966 305.693 22.0234C305.733 22.0029 305.785 21.984 305.812 21.962C305.855 21.9257 305.781 21.8927 305.623 21.8675C305.579 21.8864 305.539 21.9069 305.5 21.9273ZM296.238 20.2296C296.207 20.2674 296.268 20.2989 296.431 20.3257C296.47 20.3052 296.523 20.2863 296.549 20.2643C296.593 20.228 296.519 20.195 296.361 20.1698C296.317 20.1887 296.277 20.2092 296.238 20.2296ZM283.619 9.08592C283.579 9.1064 283.54 9.12687 283.496 9.14577C283.614 9.19144 283.724 9.20561 283.807 9.18041C283.86 9.16466 283.891 9.14104 283.93 9.12057C283.812 9.07489 283.707 9.0623 283.619 9.08592ZM271.531 3.1739C271.636 3.18492 271.724 3.16288 271.799 3.10461C271.741 3.09044 271.689 3.07154 271.627 3.06209C271.526 3.04634 271.434 3.07312 271.364 3.12982C271.421 3.14556 271.478 3.15972 271.531 3.1739ZM265.112 2.80381C265.072 2.82428 265.033 2.84476 264.989 2.86365C265.107 2.90933 265.217 2.92349 265.3 2.8983C265.353 2.88255 265.384 2.85892 265.423 2.83845C265.305 2.79278 265.2 2.78176 265.112 2.80381ZM221.582 1.36439C221.542 1.38486 221.503 1.40533 221.459 1.42423C221.578 1.4699 221.687 1.48407 221.771 1.45887C221.823 1.44313 221.854 1.4195 221.893 1.39903C221.775 1.35336 221.67 1.34234 221.582 1.36439ZM4.83641 14.1774C4.77937 14.1633 4.72238 14.1491 4.66973 14.1334C4.54249 14.1759 4.50302 14.2152 4.57322 14.2452C4.61709 14.2641 4.68286 14.2751 4.7399 14.2893C4.87153 14.2467 4.90223 14.2089 4.83641 14.1774Z" fill="#FFE492"/>
<path d="M30.2839 8.6164C29.7793 8.64633 29.2791 8.68411 28.7745 8.70301C28.5069 8.71246 28.4104 8.78018 28.3007 8.84317C28.213 8.89357 28.1121 8.90932 27.9497 8.91876C26.5808 8.99593 25.2162 9.07783 23.8516 9.15815C23.6805 9.13767 23.5971 9.10461 23.6366 9.06523C23.6586 9.04161 23.7112 9.00854 23.7639 9.00539C24.6985 8.94712 25.6286 8.88727 26.5675 8.8416C26.8352 8.829 26.9098 8.7597 27.0458 8.70301C27.0897 8.68411 27.1248 8.65576 27.1819 8.64474C27.2389 8.63214 27.3223 8.63372 27.3969 8.63057C28.9062 8.54081 30.4156 8.45262 31.925 8.36285C32.0961 8.38333 32.1794 8.41639 32.1399 8.45577C32.118 8.47939 32.0653 8.51246 32.0127 8.51561C31.4335 8.54868 30.8586 8.58176 30.2839 8.6164Z" fill="#FFE492"/>
<path d="M306.558 17.0028C306.33 17.0217 306.04 17.0485 305.803 16.9572C305.689 16.9131 305.566 16.8989 305.417 16.9083C305.202 16.9241 304.983 16.9367 304.763 16.9461C304.706 16.9477 304.632 16.9304 304.575 16.9162C304.452 16.8879 304.346 16.8406 304.215 16.828C304.083 16.8154 303.925 16.8501 303.789 16.8422C303.609 16.8312 303.535 16.7887 303.583 16.7493C303.609 16.7272 303.662 16.6957 303.719 16.691C304.531 16.6327 304.535 16.6327 304.763 16.6894C304.939 16.7335 305.101 16.7823 305.351 16.7556C305.562 16.7335 305.786 16.7288 306.001 16.7146C306.299 16.6957 306.299 16.6973 306.782 16.7965C306.904 16.8217 307.036 16.8201 307.194 16.806C307.33 16.7949 307.462 16.8201 307.571 16.8627C307.501 16.9162 307.4 16.9509 307.264 16.9603C307.045 16.9761 306.83 16.9871 306.558 17.0028Z" fill="#FFE492"/>
<path d="M298.48 16.5176C299.033 16.4846 299.59 16.4562 300.143 16.4184C300.371 16.4027 300.551 16.42 300.709 16.4735C300.88 16.5318 301.073 16.5271 301.284 16.5161C301.416 16.5098 301.543 16.5349 301.631 16.579C301.666 16.5964 301.657 16.6279 301.67 16.6531C301.187 16.6814 300.7 16.7113 300.213 16.7365C300.156 16.7397 300.086 16.7239 300.033 16.7113C299.915 16.6846 299.814 16.6373 299.687 16.6279C299.415 16.6058 299.143 16.6483 298.866 16.6562C298.735 16.6594 298.608 16.6358 298.52 16.5932C298.485 16.5728 298.493 16.5428 298.48 16.5176Z" fill="#FFE492"/>
<path d="M98.6886 2.97689C99.2634 2.94225 99.8382 2.90919 100.413 2.87454C100.584 2.89659 100.663 2.92808 100.628 2.96745C100.606 2.99108 100.553 3.02415 100.501 3.0273C99.3511 3.09817 98.2016 3.16588 97.0564 3.2336C96.8853 3.21155 96.8063 3.18006 96.8414 3.14068C96.8634 3.11706 96.916 3.08399 96.9687 3.08084C97.5391 3.04462 98.1138 3.01154 98.6886 2.97689Z" fill="#FFE492"/>
<path d="M10.1202 11.7286C9.86136 11.7317 9.58938 11.79 9.29979 11.7459C9.24276 11.738 9.16376 11.7128 9.16814 11.6986C9.17692 11.675 9.22958 11.6451 9.28662 11.6356C9.53671 11.5963 9.84827 11.5915 9.97551 11.4813C10.0369 11.4246 10.151 11.4057 10.3046 11.3947C10.4669 11.3821 10.581 11.3868 10.7082 11.4199C10.8749 11.4624 11.0154 11.5411 11.2786 11.5002C11.2918 11.5254 11.3224 11.5537 11.3093 11.5774C11.2961 11.601 11.2392 11.623 11.1865 11.6404C11.1382 11.6561 11.0724 11.6703 11.0109 11.675C10.7213 11.6939 10.4318 11.7097 10.1202 11.7286Z" fill="#FFE492"/>
<path d="M238.312 11.4123C238.527 11.3997 238.751 11.3934 238.962 11.3713C239.128 11.354 239.234 11.365 239.365 11.4028C239.589 11.469 239.602 11.4627 240.151 11.4721C240.212 11.4737 240.287 11.4973 240.322 11.5178C240.344 11.5288 240.313 11.5588 240.287 11.5745C240.247 11.595 240.19 11.6217 240.137 11.6217C239.791 11.6265 239.44 11.7194 239.102 11.6123C238.931 11.5588 238.742 11.5335 238.51 11.5572C238.369 11.5713 238.22 11.5776 238.075 11.5839C237.935 11.5902 237.79 11.5729 237.702 11.5257C237.575 11.4564 237.65 11.4296 237.878 11.4343C238.023 11.4375 238.167 11.4202 238.312 11.4123Z" fill="#FFE492"/>
<path d="M317.834 22.2675C318.11 22.2517 318.387 22.2329 318.668 22.2203C318.725 22.2171 318.795 22.2344 318.848 22.2455C319.058 22.2927 319.027 22.373 319.036 22.4439C319.041 22.5179 318.554 22.5777 318.347 22.5273C318.119 22.4707 317.913 22.4061 317.597 22.4407C317.474 22.4533 317.329 22.425 317.25 22.3793C317.132 22.3132 317.198 22.2864 317.422 22.2911C317.553 22.2943 317.694 22.2769 317.834 22.2675Z" fill="#FFE492"/>
<path d="M178.535 0.832116C178.82 0.814792 179.105 0.788033 179.391 0.786458C179.557 0.784883 179.641 0.836843 179.601 0.87464C179.579 0.898263 179.527 0.931335 179.474 0.934485C178.904 0.972282 178.333 1.00378 177.763 1.03843C177.596 1.01638 177.513 0.983317 177.552 0.94552C177.574 0.921897 177.627 0.890399 177.679 0.885675C177.965 0.863627 178.25 0.849439 178.535 0.832116Z" fill="#FFE492"/>
<path d="M312.362 17.1413C312.638 17.1255 312.919 17.1019 313.196 17.094C313.34 17.0909 313.455 17.1271 313.472 17.168C313.481 17.1869 313.411 17.22 313.354 17.2279C312.959 17.2814 312.533 17.2877 312.121 17.3145C311.989 17.3224 311.849 17.2972 311.77 17.2531C311.651 17.1853 311.717 17.1602 311.941 17.1649C312.081 17.1665 312.222 17.1491 312.362 17.1413Z" fill="#FFE492"/>
<path d="M245.56 11.6248C245.701 11.6169 245.846 11.5964 245.982 11.6027C246.127 11.6106 246.219 11.6563 246.263 11.702C246.311 11.7539 246.307 11.8028 246.263 11.8469C246.192 11.9225 246.122 11.9193 245.96 11.8689C245.709 11.7902 245.692 11.7996 245.196 11.8028C245.139 11.8028 245.068 11.7791 245.025 11.7587C244.959 11.7272 244.994 11.6783 245.147 11.65C245.262 11.6295 245.42 11.6327 245.56 11.6248Z" fill="#FFE492"/>
<path d="M302.083 16.6248C302.289 16.6122 302.495 16.5917 302.702 16.5917C302.847 16.5901 302.961 16.6263 302.974 16.6657C302.978 16.6846 302.912 16.7161 302.86 16.7256C302.609 16.7681 302.328 16.7712 302.056 16.7854C301.929 16.7917 301.788 16.7665 301.709 16.7224C301.591 16.6563 301.661 16.6263 301.876 16.6358C301.942 16.6389 302.012 16.6295 302.083 16.6248Z" fill="#FFE492"/>
<path d="M269.627 14.6926C269.32 14.7115 269.03 14.6878 269.052 14.6469C269.083 14.5934 269.21 14.5587 269.342 14.5492C269.553 14.5335 269.763 14.5209 269.979 14.5114C270.115 14.5051 270.238 14.5288 270.347 14.5697C270.282 14.6201 270.181 14.6563 270.049 14.6674C269.913 14.6784 269.768 14.6847 269.627 14.6926Z" fill="#FFE492"/>
<path d="M267.612 14.491C267.818 14.4784 268.024 14.4579 268.231 14.4579C268.376 14.4563 268.49 14.4925 268.503 14.5319C268.507 14.5508 268.441 14.5823 268.389 14.5917C268.139 14.6343 267.857 14.6374 267.585 14.6516C267.458 14.6579 267.317 14.6327 267.238 14.5886C267.12 14.5225 267.19 14.4925 267.405 14.502C267.471 14.5051 267.541 14.4957 267.612 14.491Z" fill="#FFE492"/>
<path d="M243.074 11.6122C243.28 11.5996 243.486 11.5791 243.693 11.5775C243.838 11.5759 243.952 11.6122 243.965 11.6515C243.969 11.6704 243.903 11.7004 243.851 11.7114C243.6 11.7539 243.319 11.7571 243.047 11.7712C242.92 11.7775 242.779 11.7523 242.7 11.7082C242.582 11.6421 242.652 11.6122 242.867 11.6216C242.933 11.6248 243.003 11.6153 243.074 11.6122Z" fill="#FFE492"/>
<path d="M241.918 11.5191C242.137 11.5065 242.208 11.4986 242.278 11.4986C242.41 11.4986 242.546 11.5175 242.625 11.5632C242.743 11.6293 242.673 11.6482 242.458 11.6514C242.181 11.6545 241.909 11.6876 241.633 11.6939C241.488 11.6971 241.373 11.6593 241.365 11.6199C241.36 11.601 241.426 11.5679 241.479 11.5616C241.663 11.538 241.865 11.5238 241.918 11.5191Z" fill="#FFE492"/>
<path d="M265.827 2.25422C265.686 2.26209 265.537 2.28414 265.405 2.27627C265.229 2.26524 265.159 2.22273 265.203 2.18336C265.23 2.16131 265.278 2.12981 265.331 2.12509C265.612 2.10304 265.897 2.08885 266.178 2.0731C266.345 2.09673 266.419 2.1298 266.375 2.16917C266.349 2.19122 266.301 2.22114 266.248 2.22744C266.112 2.24319 265.967 2.24634 265.827 2.25422Z" fill="#FFE492"/>
<path d="M95.5426 3.1627C95.6787 3.16112 95.8016 3.18159 95.9069 3.22097C95.8411 3.27136 95.7445 3.30443 95.6128 3.31861C95.5469 3.32491 95.4723 3.32962 95.4021 3.3312C95.2659 3.33435 95.143 3.3123 95.0376 3.27293C95.1035 3.22253 95.2044 3.18946 95.3317 3.17529C95.3976 3.16899 95.4723 3.16742 95.5426 3.1627Z" fill="#FFE492"/>
<path d="M310.863 17.1352C310.858 17.0895 311.126 17.0375 311.367 17.0391C311.495 17.0407 311.627 17.0627 311.701 17.1052C311.815 17.1698 311.749 17.195 311.534 17.1903C311.403 17.1871 311.262 17.2139 311.13 17.2092C310.981 17.2076 310.893 17.173 310.863 17.1352Z" fill="#FFE492"/>
<path d="M246.831 11.8152C246.827 11.7979 246.805 11.7774 246.818 11.7617C246.902 11.675 247.407 11.6483 247.538 11.7239C247.56 11.738 247.569 11.7617 247.551 11.7758C247.525 11.7979 247.477 11.8262 247.424 11.8325C247.288 11.8483 247.147 11.8562 247.007 11.8577C246.946 11.8577 246.888 11.8309 246.831 11.8152Z" fill="#FFE492"/>
<path d="M11.6811 11.4766C11.163 11.5097 11.1542 11.5065 11.2464 11.4278C11.3299 11.3569 11.4836 11.3144 11.7075 11.3144C11.7733 11.3144 11.8436 11.3113 11.9006 11.3176C11.9621 11.3254 12.05 11.3412 12.0631 11.3601C12.0895 11.3963 12.0148 11.4357 11.8831 11.4624C11.826 11.475 11.7514 11.4719 11.6811 11.4766Z" fill="#FFE492"/>
<path d="M102.024 2.94099C101.871 2.96776 101.739 2.95832 101.642 2.90792C101.546 2.85753 101.699 2.79768 101.967 2.7835C102.037 2.78035 102.112 2.76776 102.178 2.77406C102.244 2.77879 102.31 2.79767 102.349 2.81657C102.419 2.84807 102.376 2.8906 102.235 2.92682C102.178 2.94099 102.094 2.93784 102.024 2.94099Z" fill="#FFE492"/>
<path d="M309.949 17.0166C309.988 16.9961 310.028 16.9757 310.072 16.9568C310.234 16.9835 310.304 17.015 310.26 17.0512C310.234 17.0733 310.181 17.0922 310.142 17.1127C309.979 17.0859 309.914 17.0528 309.949 17.0166Z" fill="#FFE492"/>
<path d="M18.6304 29.4048C18.6304 29.3859 18.6918 29.356 18.7401 29.3497C18.8323 29.3386 18.9465 29.3607 19.0255 29.4048C19.1352 29.4678 19.0694 29.5009 18.8675 29.4835C18.727 29.4709 18.6304 29.4394 18.6304 29.4048Z" fill="#FFE492"/>
<path d="M248.62 10.349C248.677 10.3632 248.734 10.3773 248.787 10.3931C248.712 10.4514 248.62 10.4766 248.523 10.4608C248.462 10.4514 248.409 10.4325 248.352 10.4183C248.427 10.36 248.515 10.338 248.62 10.349Z" fill="#FFE492"/>
<path d="M247.1 10.278C247.188 10.2544 247.294 10.267 247.417 10.3127C247.377 10.3331 247.342 10.3567 247.294 10.3725C247.21 10.3977 247.1 10.3851 246.982 10.3378C247.017 10.3189 247.057 10.2985 247.1 10.278Z" fill="#FFE492"/>
<path d="M245.936 10.3472C245.993 10.3613 246.05 10.3755 246.103 10.3913C246.028 10.4495 245.941 10.4747 245.84 10.459C245.778 10.4495 245.726 10.4306 245.668 10.4165C245.743 10.3582 245.831 10.3346 245.936 10.3472Z" fill="#FFE492"/>
<path d="M245.083 10.2638C245.149 10.2953 245.114 10.3331 244.986 10.3756C244.929 10.3614 244.864 10.3504 244.82 10.3315C244.749 10.3016 244.785 10.2622 244.916 10.2197C244.969 10.2354 245.026 10.2496 245.083 10.2638Z" fill="#FFE492"/>
</svg>
